<svg xmlns="http://www.w3.org/2000/svg" width="190.879" height="141.235" viewBox="0 0 190.879 141.235">
  <g id="Group_12" data-name="Group 12" transform="translate(0 0)">
    <path id="Path_31" data-name="Path 31" d="M116.3,446.59a3.128,3.128,0,0,0-2.771-2.758c-10.282-2.452-19.842-6.459-27.671-13.8a26.739,26.739,0,0,1-8.837-18.428,2.827,2.827,0,0,0-1.267-2.086,2.489,2.489,0,0,0-2.163.77,21.467,21.467,0,0,0-2.814,4.193q-5.189,10.346-10.2,20.782a1.764,1.764,0,0,1-1.9,1.172c-7.267-.045-14.536-.024-21.8-.024V436.1c4.294-6.427,8.608-12.838,12.878-19.278q24.848-37.5,49.7-74.985a2.66,2.66,0,0,1,1.839-1.081c6.531-.077,13.064-.048,19.594-.045.194,0,.391.024.8.051-1.892,3.592-3.706,7.041-5.521,10.489-.345.656-.707,1.3-1.047,1.961-.863,1.674-.082,3.151,1.836,2.981a8.792,8.792,0,0,0,4.092-1.462,65.726,65.726,0,0,1,16.605-8.236,93.354,93.354,0,0,1,36.205-4.636c1.429.09,2.859.183,4.286.305s2.846.29,4.458.454a9.786,9.786,0,0,1-.51,1.164c-2.984,4.878-6.007,9.735-8.948,14.639a2.043,2.043,0,0,1-2.1.967c-14.313.138-28.33,2.091-41.814,7.062-8.808,3.249-16.847,7.782-23.25,14.8-6.05,6.634-9.514,14.392-9.44,23.444.058,6.94,3.329,12.354,8.85,16.443,5.571,4.126,12.022,6.153,18.688,7.636.569.128,1.137.25,1.706.375Q121.042,437.865,116.3,446.59Z" transform="translate(-36.874 -340.698)" fill="#d8e0ee"/>
    <path id="Path_32" data-name="Path 32" d="M78.474,423.141q4.739-8.724,9.477-17.445c3.938-5.519,7.888-11.024,11.8-16.555q10.976-15.507,21.935-31.024a3.174,3.174,0,0,1,1.671-1.254c13.667-3.007,27.23-3.061,40.22,2.715,13.25,5.89,22.211,15.742,25.49,30.113,2.264,9.926-.125,19.108-5.3,27.666-4.474,7.4-10.489,13.42-17.2,18.781-10.524,8.409-21.9,15.229-34.988,18.941a93.916,93.916,0,0,1-35.764,2.829,135.452,135.452,0,0,1-34.406-8.7c-.531-.2-1.044-.454-1.7-.741,3.5-4.5,6.908-8.887,10.319-13.273,2.572-3.305,5.17-6.589,7.689-9.934A7.68,7.68,0,0,0,78.474,423.141ZM89.258,434.71a10.8,10.8,0,0,0,1.044.4c1.382.366,2.755.784,4.155,1.06,13.327,2.62,26.393,1.278,39.245-2.747,10.433-3.268,19.679-8.5,26.6-17.158,5.4-6.767,9.1-14.286,8.9-23.232-.221-10.163-5.763-17.27-15.569-19.889-6.972-1.862-13.967-1.376-20.979-.12a4.36,4.36,0,0,0-3.1,2.118q-17.161,25.434-34.4,50.815C93.2,428.841,91.264,431.731,89.258,434.71Z" transform="translate(0.956 -317.25)" fill="#d8e0ee"/>
  </g>
</svg>
