<svg xmlns="http://www.w3.org/2000/svg" width="80.756" height="59.967" viewBox="0 0 80.756 59.967">
  <g id="Group_12" data-name="Group 12" transform="translate(0 0)">
    <g id="Path_31" data-name="Path 31">
      <path id="Path_3528" data-name="Path 3528" d="M1.624,55.1A1.323,1.323,0,0,0,.45,53.929a25.113,25.113,0,0,1-11.715-5.851,11.369,11.369,0,0,1-3.742-7.823,1.18,1.18,0,0,0-.532-.875,1.053,1.053,0,0,0-.916.324,8.986,8.986,0,0,0-1.191,1.78q-2.2,4.388-4.318,8.82a.749.749,0,0,1-.807.5c-3.075-.022-6.154-.013-9.229-.013v-.136c1.819-2.724,3.646-5.44,5.452-8.181q10.52-15.919,21.036-31.824a1.115,1.115,0,0,1,.781-.459c2.765-.035,5.53-.022,8.3-.022.083,0,.161.013.336.022L1.562,14.641c-.144.28-.3.551-.441.831-.366.7-.035,1.338.776,1.268a3.732,3.732,0,0,0,1.732-.621,27.848,27.848,0,0,1,7.027-3.494,39.4,39.4,0,0,1,15.331-1.968c.606.039,1.208.079,1.814.131s1.2.122,1.889.192a4.48,4.48,0,0,1-.218.494c-1.26,2.068-2.543,4.128-3.786,6.209a.86.86,0,0,1-.89.411,51.941,51.941,0,0,0-17.7,3,24.373,24.373,0,0,0-9.844,6.279,14.266,14.266,0,0,0-4,9.952A8.487,8.487,0,0,0-3,44.3a20.214,20.214,0,0,0,7.912,3.24l.72.162Z" transform="translate(32 -10.165)" fill="#0f64aa"/>
    </g>
    <g id="Path_32" data-name="Path 32" transform="translate(25.664 15.944)">
      <path id="Path_3529" data-name="Path 3529" d="M-18.156,42.808l4.008-7.4q2.506-3.509,5-7.022Q-4.5,21.8.128,15.22a1.34,1.34,0,0,1,.7-.525A26.629,26.629,0,0,1,17.853,15.85,17.833,17.833,0,0,1,28.644,28.627,15.469,15.469,0,0,1,26.4,40.368a30.53,30.53,0,0,1-7.279,7.971A42.2,42.2,0,0,1,4.31,56.38a39.666,39.666,0,0,1-15.139,1.2A57.217,57.217,0,0,1-25.4,53.892c-.222-.083-.441-.192-.72-.315l4.375-5.632c1.09-1.4,2.19-2.794,3.258-4.211A3.5,3.5,0,0,0-18.156,42.808Zm4.562,4.915c.144.066.292.122.441.175.589.157,1.169.332,1.753.45A33.232,33.232,0,0,0,5.213,47.18a22.452,22.452,0,0,0,11.266-7.294,15.093,15.093,0,0,0,3.768-9.86,8.368,8.368,0,0,0-6.59-8.439,20.173,20.173,0,0,0-8.885-.052,1.851,1.851,0,0,0-1.308.9Q-3.8,33.225-11.095,44c-.829,1.224-1.649,2.449-2.5,3.712Z" transform="translate(26.116 -13.812)" fill="#69696c"/>
    </g>
  </g>
</svg>
