<?xml version="1.0" standalone="no"?>
<!DOCTYPE svg PUBLIC "-//W3C//DTD SVG 1.1//EN" "http://www.w3.org/Graphics/SVG/1.1/DTD/svg11.dtd" >
<svg xmlns="http://www.w3.org/2000/svg">
<metadata>Generated by IcoMoon</metadata>
<defs>
<font id="icomoon" horiz-adv-x="1024">
<font-face units-per-em="1024" ascent="960" descent="-64" />
<missing-glyph horiz-adv-x="1024" />
<glyph unicode="&#x20;" horiz-adv-x="512" d="" />
<glyph unicode="&#xe900;" glyph-name="ham" d="M149.333 703.36h725.333c23.564 0 42.667 19.103 42.667 42.667s-19.103 42.667-42.667 42.667v0h-725.333c-23.564 0-42.667-19.103-42.667-42.667s19.103-42.667 42.667-42.667v0zM874.667 490.667h-725.333c-23.564 0-42.667-19.103-42.667-42.667s19.103-42.667 42.667-42.667v0h725.333c23.564 0 42.667 19.103 42.667 42.667s-19.103 42.667-42.667 42.667v0zM874.667 192.64h-725.333c-23.564 0-42.667-19.103-42.667-42.667s19.103-42.667 42.667-42.667v0h725.333c23.564 0 42.667 19.103 42.667 42.667s-19.103 42.667-42.667 42.667v0z" />
<glyph unicode="&#xe901;" glyph-name="cancel" d="M572.331 448l287.915 287.915c7.41 7.665 11.977 18.12 11.977 29.641 0 23.564-19.103 42.667-42.667 42.667-11.521 0-21.976-4.567-29.653-11.989l-287.903-287.903-287.915 287.915c-7.665 7.41-18.12 11.977-29.641 11.977-23.564 0-42.667-19.103-42.667-42.667 0-11.521 4.567-21.976 11.989-29.653l287.903-287.903-287.872-287.872c-8.036-7.769-13.026-18.647-13.026-30.69 0-23.564 19.103-42.667 42.667-42.667 12.043 0 22.92 4.989 30.678 13.014l287.884 287.884 287.915-287.915c7.769-8.036 18.647-13.026 30.69-13.026 23.564 0 42.667 19.103 42.667 42.667 0 12.043-4.989 22.92-13.014 30.678l-0.012 0.012z" />
<glyph unicode="&#xe902;" glyph-name="search" d="M883.755 136.747l-135.296 135.125c45.799 58.243 73.452 132.634 73.452 213.484 0 191.624-155.342 346.965-346.965 346.965s-346.965-155.342-346.965-346.965c0-191.624 155.342-346.965 346.965-346.965 80.678 0 154.924 27.536 213.854 73.722l-0.757-0.571 135.424-135.339c7.724-7.693 18.379-12.449 30.144-12.449 23.594 0 42.721 19.127 42.721 42.721 0 11.829-4.808 22.535-12.575 30.271l-0.001 0.001zM660.011 300.203c-47.247-47.253-112.521-76.48-184.622-76.48-144.189 0-261.077 116.888-261.077 261.077s116.888 261.077 261.077 261.077c72.101 0 137.375-29.227 184.622-76.48v0c47.238-47.245 76.456-112.509 76.456-184.597s-29.217-137.353-76.456-184.598v0z" />
<glyph unicode="&#xe903;" glyph-name="arrow01" d="M512 245.76c-11.781 0.003-22.446 4.78-30.165 12.501l-319.189 319.189c-7.716 7.722-12.489 18.386-12.489 30.165 0 23.569 19.106 42.675 42.675 42.675 11.79 0 22.463-4.781 30.186-12.51l288.982-289.024 288.981 289.024c7.724 7.729 18.397 12.51 30.187 12.51 23.569 0 42.675-19.106 42.675-42.675 0-11.779-4.772-22.444-12.489-30.166l-319.189-319.189c-7.719-7.722-18.384-12.499-30.165-12.501h-0.001z" />
<glyph unicode="&#xe904;" glyph-name="arrow02" d="M832 485.461h-557.355l210.731 210.688c5.793 5.793 9.376 13.795 9.376 22.635 0 17.679-14.331 32.010-32.010 32.010-8.839 0-16.842-3.583-22.635-9.376l-257.92-257.92c-12.842-4.145-22.003-15.912-22.186-29.845v-0.022c0.167-1.061 0.36-1.954 0.597-2.83l-0.043 0.185c-0.133-1.082-0.209-2.335-0.209-3.606 0-8.577 3.452-16.347 9.043-21.997l270.717-270.76c5.793-5.793 13.795-9.376 22.635-9.376 17.679 0 32.010 14.331 32.010 32.010 0 8.839-3.583 16.842-9.376 22.635l-221.525 221.525h568.149c17.673 0 32 14.327 32 32s-14.327 32-32 32v0z" />
<glyph unicode="&#xe905;" glyph-name="arrow03" d="M128.299 134.485v627.2c0.134 53.742 43.732 97.257 97.493 97.257 17.131 0 33.23-4.418 47.219-12.178l-0.499 0.254 572.544-313.685c30.419-16.877 50.667-48.805 50.667-85.461s-20.248-68.584-50.17-85.208l-0.497-0.254-572.544-313.429c-13.5-7.523-29.614-11.953-46.763-11.953-53.763 0-97.357 43.537-97.451 97.277v0.009z" />
<glyph unicode="&#xe906;" glyph-name="logout" d="M849.102 778.616c-20.417 20.714-48.733 33.594-80.059 33.751h-0.585l-350.521-0.768c-23.565 0-42.668-19.103-42.668-42.668s19.103-42.668 42.668-42.668v0 0l350.692 0.768c7.906-0.209 14.985-3.588 20.043-8.906l0.011-0.012c8.095-8.58 13.071-20.18 13.071-32.942 0-0.42-0.005-0.838-0.016-1.255l0.001 0.062v-472.254c0.009-0.355 0.015-0.774 0.015-1.193 0-12.762-4.976-24.362-13.093-32.965l0.022 0.024c-5.101-5.355-12.23-8.739-20.15-8.917l-0.032-0.001-350.564 0.725c-23.565 0-42.668-19.103-42.668-42.668s19.103-42.668 42.668-42.668v0l350.948-0.725c31.4 0.13 59.765 13.015 80.204 33.738l0.013 0.013c23.744 24.139 38.403 57.277 38.403 93.839 0 0.221-0.001 0.442-0.002 0.663v-0.034 472.596c0.001 0.187 0.001 0.408 0.001 0.629 0 36.562-14.659 69.7-38.421 93.857l0.018-0.018zM395.11 320.016c-8.037-7.77-13.026-18.648-13.026-30.691 0-23.565 19.103-42.668 42.668-42.668 12.043 0 22.921 4.99 30.679 13.014l158.397 158.355c7.719 7.721 12.493 18.386 12.493 30.167s-4.774 22.446-12.493 30.167l-158.385 158.342c-7.734 7.691-18.395 12.446-30.167 12.446-23.628 0-42.783-19.155-42.783-42.783 0-11.857 4.823-22.587 12.614-30.335l0.002-0.002 85.55-85.337h-301.453c-23.565 0-42.668-19.103-42.668-42.668s19.103-42.668 42.668-42.668v0h301.453z" />
<glyph unicode="&#xe907;" glyph-name="pushpinOutline" d="M509.056-5.291h-2.688c-42.076 1.51-75.612 35.983-75.612 78.289 0 0.977 0.018 1.95 0.053 2.918l-0.004-0.14v263.381h-195.243c-42.703 0.668-77.065 35.442-77.065 78.242 0 42.409 33.737 76.939 75.838 78.214l0.117 0.003h17.28c35.58 12.698 60.587 46.104 60.587 85.35 0 0.069 0 0.138 0 0.207v-0.011 173.909h-13.653c-39.156 1.588-70.297 33.716-70.297 73.117 0 21.15 8.973 40.203 23.319 53.562l0.044 0.041c12.724 12.15 30.001 19.627 49.025 19.627 1.23 0 2.453-0.031 3.668-0.093l-0.17 0.007h410.837c39.373-1.324 70.789-33.561 70.789-73.134 0-38.868-30.305-70.658-68.575-73.031l-0.208-0.010h-11.435v-174.037c0-0.063 0-0.137 0-0.212 0-39.23 24.986-72.625 59.913-85.138l0.631-0.197h22.101c42.645-0.981 76.84-35.784 76.84-78.572 0-0.877-0.014-1.751-0.043-2.621l0.003 0.127c-2.413-42.236-37.252-75.572-79.877-75.572-0.418 0-0.836 0.003-1.252 0.010l0.063-0.001h-196.779v-264.533c0-0.427 0-4.011 0-4.267-1.626-41.938-35.986-75.328-78.159-75.392h-0.006zM462.848 403.029c17.673 0 32-14.327 32-32v0-296.448c-0.028-0.348-0.044-0.753-0.044-1.161 0-3.899 1.457-7.457 3.855-10.161l-0.014 0.016c2.536-2.582 6.043-4.202 9.929-4.267h0.012c7.509-1.92 14.464 5.845 14.72 13.696v298.667c0 17.673 14.327 32 32 32v0h229.76c0.378-0.035 0.817-0.055 1.262-0.055 7.763 0 14.11 6.062 14.566 13.71l0.002 0.040c0.006 0.155 0.009 0.337 0.009 0.519 0 7.709-6.121 13.988-13.767 14.243l-0.023 0.001-2.048 32v-32h-24.064c-3.304 0.005-6.489 0.504-9.488 1.426l0.23-0.061c-64.273 19.493-110.251 78.215-110.251 147.675 0 0.163 0 0.326 0.001 0.489v-0.025 206.037c0 17.673 14.327 32 32 32v0h41.429c3.853 1.195 6.604 4.727 6.604 8.902 0 0.276-0.012 0.549-0.036 0.819l0.002-0.035c-0.319 4.579-3.955 8.214-8.504 8.532l-0.029 0.002h-409.771c-0.297 0.030-0.642 0.047-0.991 0.047-2.589 0-4.959-0.937-6.789-2.491l0.015 0.012c-1.823-1.682-2.96-4.082-2.96-6.749 0-4.937 3.9-8.963 8.787-9.165l0.018-0.001h43.093c17.673 0 32-14.327 32-32v0-205.995c0-0.102 0-0.222 0-0.343 0-69.516-46.013-128.284-109.245-147.51l-1.092-0.285c-2.758-0.831-5.929-1.313-9.211-1.323h-21.338c-7.088-0.918-12.508-6.917-12.508-14.181 0-7.656 6.019-13.906 13.584-14.276l0.033-0.001z" />
<glyph unicode="&#xe908;" glyph-name="pushpinFill" d="M785.323 463.445h-24.064c-50.985 15.735-87.409 62.395-87.509 117.577v206.007h41.429c21.73 1.25 38.879 19.177 38.879 41.109s-17.148 39.859-38.768 41.104l-0.11 0.005h-411.989c-0.107 0.001-0.234 0.002-0.36 0.002-22.763 0-41.216-18.453-41.216-41.216 0-21.839 16.985-39.711 38.466-41.126l0.123-0.007c0.981 0 2.005 0 2.987 0h41.216v-205.995c-0.136-55.163-36.574-101.778-86.681-117.23l-0.871-0.231h-21.333c-24.674-1.094-44.264-21.363-44.264-46.208s19.59-45.115 44.166-46.205l0.098-0.003h227.243v-296.491c-0.053-0.832-0.084-1.804-0.084-2.783 0-25.544 20.707-46.251 46.251-46.251 25.412 0 46.037 20.494 46.249 45.856v0.020c0 1.067 0 2.133 0 3.157v296.491h229.888c0.111-0.001 0.243-0.002 0.374-0.002 25.544 0 46.251 20.707 46.251 46.251 0 24.564-19.15 44.656-43.335 46.16l-0.132 0.007h-3.115z" />
<glyph unicode="&#xe909;" glyph-name="calendar01" d="M810.667 789.333h-42.667v85.333h-85.333v-85.333h-341.333v85.333h-85.333v-85.333h-42.667c-47.060-0.169-85.164-38.273-85.333-85.317v-597.349c0.169-47.060 38.273-85.164 85.317-85.333h597.349c47.060 0.169 85.164 38.273 85.333 85.317v597.349c-0.169 47.060-38.273 85.164-85.317 85.333h-0.016zM810.667 106.667h-597.333v426.667h597.333zM213.333 704h597.333v-85.333h-597.333zM450.603 172.459l252.971 252.971-45.227 45.227-207.787-207.787-90.027 90.027-45.227-45.227z" />
<glyph unicode="&#xe90a;" glyph-name="calendar02" d="M789.366 334.609c-23.98-23.51-47.789-47.362-71.555-71.214l-10.198-10.198c-6.016-6.102-11.99-12.331-18.177-18.817l-2.432-2.56-7.808 7.851c-11.99 11.99-23.382 23.596-34.945 35.031-5.010 5.301-12.042 8.644-19.857 8.789h-0.027c-6.812-0.215-12.868-3.281-17.044-8.038l-0.023-0.027c-4.198-4.389-6.783-10.352-6.783-16.919 0-6.97 2.911-13.259 7.584-17.719l0.010-0.009 1.323-1.195c16.043-16.171 32.257-32.343 48.386-48.386l7.424-7.467c5.252-6.352 12.86-10.595 21.467-11.383l0.123-0.009c8.866 0.86 16.577 5.208 21.844 11.634l0.045 0.057 115.205 115.205c3.053 2.823 5.671 6.053 7.785 9.617l0.108 0.197c1.937 3.386 3.079 7.443 3.079 11.766 0 8.925-4.868 16.714-12.093 20.856l-0.117 0.062c-3.26 1.842-7.141 2.968-11.276 3.072l-0.031 0.001c-8.585-0.721-16.184-4.448-21.846-10.112v0zM521.024 715.723h137.008c0-10.326 0-20.054 0-29.868-0.001-0.076-0.001-0.166-0.001-0.256 0-10.499 5.568-19.697 13.912-24.803l0.127-0.072c4.561-2.968 10.142-4.734 16.136-4.734 16.27 0 29.501 13.008 29.86 29.192l0.001 0.033c0.469 10.155 0 20.353 0 30.977h34.135c1.214 0.086 2.631 0.134 4.060 0.134 33.91 0 61.4-27.49 61.4-61.4 0-1.428-0.049-2.846-0.145-4.25l0.010 0.19q0.341-43.010 0.341-86.062c0-23.34-1.28-46.679-0.683-70.062 0.427-15.787 3.157-32.855 20.182-38.402 3.154-1.357 6.826-2.147 10.681-2.147 8.102 0 15.39 3.485 20.447 9.037l0.020 0.022c6.42 9.807 10.24 21.821 10.24 34.726 0 3.39-0.264 6.719-0.771 9.967l0.046-0.361c0 17.921 0 35.799 0.256 53.677s0 35.799 0.427 53.677c0.509 5.713 0.8 12.358 0.8 19.071 0 20.786-2.783 40.921-7.997 60.054l0.371-1.597c-2.271 6.566-4.534 11.936-7.090 17.136l0.391-0.88c-18.776 39.693-58.155 66.839-103.96 67.671l-0.108 0.002c-13.953 0.768-27.99 0-42.668 0v27.521c0.069 0.767 0.109 1.659 0.109 2.56 0 16.685-13.526 30.211-30.211 30.211-15.784 0-28.741-12.104-30.095-27.537l-0.008-0.114c-0.082-0.806-0.128-1.742-0.128-2.688s0.046-1.882 0.137-2.805l-0.009 0.117v-26.668h-137.222v27.052c0.035 0.542 0.055 1.175 0.055 1.813 0 16.667-13.511 30.178-30.178 30.178-16.029 0-29.139-12.497-30.12-28.279l-0.004-0.086c0-1.152 0-2.261 0-3.413v-27.308h-135.515c0 9.6 0 19.585 0 29.484 0.001 0.108 0.002 0.235 0.002 0.363 0 16.556-13.421 29.977-29.977 29.977-16.428 0-29.77-13.215-29.974-29.595v-0.019c-0.384-9.984 0-19.926 0-30.679-13.483 0-26.198 0-38.914 0-57.579-0.483-105.44-41.493-116.482-95.874l-0.131-0.77c-1.737-8.502-2.731-18.273-2.731-28.277 0-0.049 0-0.099 0-0.148v0.008c0-153.606 0.469-307.213-0.341-460.521-0.022-0.856-0.034-1.865-0.034-2.876 0-61.283 45.142-112.023 103.989-120.781l0.668-0.082c0.997-0.271 1.866-0.711 2.62-1.293l-0.017 0.013h249.866c2.261 0.981 4.566 1.92 6.784 2.987 10.282 4.867 17.266 15.158 17.266 27.079 0 4.69-1.081 9.128-3.008 13.078l0.078-0.177c-1.49 3.147-3.391 5.84-5.678 8.152l0.003-0.003c-5.944 5.731-14.044 9.262-22.969 9.262-0.851 0-1.695-0.032-2.53-0.095l0.111 0.007c-74.030 0-148.060-0.299-222.089 0.256-0.111-0.001-0.243-0.001-0.374-0.001-10.888 0-21.233 2.325-30.565 6.506l0.474-0.19c-20.413 9.504-34.309 29.843-34.309 53.427 0 1.59 0.063 3.164 0.187 4.722l-0.013-0.206v460.819c0 2.005 0 3.968 0 6.016 0.189 27.795 19.762 50.965 45.866 56.678l0.386 0.071c14.324 1.887 30.887 2.963 47.702 2.963 1.351 0 2.7-0.007 4.047-0.021l-0.206 0.002c0-11.478-0.299-21.59 0-31.404 0.193-16.349 13.491-29.529 29.868-29.529 16.497 0 29.87 13.373 29.87 29.87 0 0.12-0.001 0.24-0.002 0.36v-0.018c0.256 9.899 0 19.841 0 29.484h136.112v-22.913c0-23.041 11.435-36.951 30.295-36.823s29.868 13.91 29.868 36.524zM294.882 550.426c-16.292-0.264-29.399-13.534-29.399-29.864 0-16.496 13.372-29.868 29.868-29.868 16.494 0 29.866 13.37 29.868 29.864v0c0 0.001 0 0.002 0 0.004 0 16.496-13.372 29.868-29.868 29.868-0.165 0-0.33-0.001-0.494-0.004h0.025zM426.258 550.426c-16.494-0.002-29.864-13.374-29.864-29.868 0-16.496 13.372-29.868 29.868-29.868 16.331 0 29.6 13.106 29.864 29.374v0.025c0.002 0.14 0.004 0.304 0.004 0.469 0 16.496-13.372 29.868-29.868 29.868-0.001 0-0.003 0-0.004 0v0zM527.041 520.558c0.17-16.366 13.476-29.568 29.866-29.568 16.496 0 29.868 13.372 29.868 29.868 0 16.39-13.202 29.697-29.552 29.866h-0.016c-0.089 0.001-0.195 0.002-0.3 0.002-16.496 0-29.868-13.372-29.868-29.868 0-0.106 0.001-0.211 0.002-0.316v0.016zM687.645 550.426c-16.199-0.382-29.185-13.605-29.185-29.86 0-16.496 13.372-29.868 29.868-29.868 16.493 0 29.863 13.368 29.868 29.86v0c0 0.002 0 0.005 0 0.008 0 16.496-13.372 29.868-29.868 29.868-0.24 0-0.479-0.003-0.718-0.008l0.035 0.001zM294.967 419.519c-16.33-0.217-29.484-13.505-29.484-29.865 0-16.496 13.372-29.868 29.868-29.868s29.867 13.371 29.868 29.865v0c0 0.001 0 0.002 0 0.002 0 16.496-13.372 29.868-29.868 29.868-0.135 0-0.27-0.001-0.404-0.003h0.020zM426.258 419.519c-16.494-0.002-29.864-13.374-29.864-29.868 0-16.496 13.372-29.868 29.868-29.868 16.331 0 29.6 13.106 29.864 29.374v0.025c0.002 0.14 0.004 0.304 0.004 0.469 0 16.496-13.372 29.868-29.868 29.868-0.001 0-0.003 0-0.004 0v0zM265.099 259.043c-0.001-0.111-0.002-0.243-0.002-0.374 0-16.496 13.372-29.868 29.868-29.868s29.868 13.372 29.868 29.868c0 16.225-12.937 29.428-29.058 29.857l-0.040 0.001h-0.597c-16.277-0.208-29.444-13.24-29.867-29.444l-0.001-0.040zM396.091 258.787c0.004-16.492 13.375-29.86 29.868-29.86 16.496 0 29.868 13.372 29.868 29.868 0 16.256-12.986 29.478-29.15 29.859l-0.035 0.001c-0.203 0.005-0.443 0.008-0.683 0.008-16.496 0-29.868-13.372-29.868-29.868 0-0.003 0-0.005 0-0.008v0zM719.689 457.494h-1.579c-0.195 0.001-0.425 0.001-0.656 0.001-109.955 0-199.091-89.136-199.091-199.091 0-54.653 22.022-104.162 57.676-140.139l-0.015 0.015c35.567-36.286 85.054-58.814 139.803-58.925h1.002c1.178-0.025 2.567-0.039 3.96-0.039 109.955 0 199.091 89.136 199.091 199.091s-89.136 199.091-199.091 199.091c-0.402 0-0.804-0.001-1.205-0.004h0.062zM866.895 257.72c-0.241-82.070-66.646-148.55-148.665-148.913h-0.376c-0.751-0.014-1.638-0.021-2.526-0.021-82.619 0-149.596 66.976-149.596 149.596s66.976 149.596 149.596 149.596c0.888 0 1.775-0.008 2.659-0.023l-0.133 0.002h0.341c0.053 0 0.115 0 0.178 0 40.863 0 77.839-16.64 104.522-43.513l0.008-0.008c27.252-27.062 44.121-64.55 44.121-105.978 0-0.244-0.001-0.487-0.002-0.731v0.038z" />
<glyph unicode="&#xe90b;" glyph-name="assets" d="M830.336 803.328h-641.835c-0.001 0-0.001 0-0.002 0-61.95 0-112.171-50.221-112.171-112.171 0-0.24 0.001-0.48 0.002-0.72v0.037l-0.427-484.779c0-0.038 0-0.083 0-0.128 0-62.327 50.526-112.853 112.853-112.853 0.015 0 0.030 0 0.045 0h695.464c35.346 0 64 28.654 64 64v0 528.896c-0.097 64.989-52.767 117.645-117.753 117.717h-0.007zM188.245 156.715c-26.735 0.169-48.342 21.881-48.342 48.639 0 0.075 0 0.151 0.001 0.226v-0.012l0.427 485.845c0.121 26.583 21.699 48.085 48.298 48.085 0 0 0 0 0.001 0h641.707c29.656-0.048 53.687-24.064 53.76-53.71v-529.074zM635.264 545.067h141.269c14.428 0.022 26.116 11.723 26.116 26.155 0 7.192-2.903 13.705-7.6 18.433l0.001-0.001-70.571 70.741c-4.738 4.724-11.276 7.645-18.496 7.645s-13.758-2.921-18.497-7.645l-70.74-70.74c-4.696-4.727-7.599-11.24-7.599-18.432 0-14.431 11.688-26.133 26.114-26.155h0.002zM463.616 496.512h-145.493v48.469h172.843c11.617 0 21.035 9.418 21.035 21.035v0 54.955c0 11.594-9.398 20.992-20.992 20.992v0h-76.032v28.416c0 0 0 0 0 0 0 11.084-8.973 20.072-20.051 20.096h-56.834c0 0 0 0 0 0-11.075 0-20.053-8.978-20.053-20.053 0-0.015 0-0.030 0-0.045v0.002-28.373h-48.512c-26.73-0.097-48.373-21.739-48.469-48.46v-145.332c0.073-26.74 21.73-48.397 48.462-48.469h145.543v-48.512h-174.165c-10.957 0-19.84-8.883-19.84-19.84v0-57.259c0 0 0 0 0 0 0-10.966 8.877-19.858 19.838-19.883h77.143v-28.416c0.024-11.080 9.012-20.053 20.096-20.053 0 0 0 0 0 0h56.875c11.099 0 20.096 8.997 20.096 20.096v28.203h48.512c26.713 0.097 48.336 21.75 48.384 48.465v145.669c-0.048 26.734-21.696 48.397-48.42 48.469h-0.007zM776.789 351.019h-141.525c-14.408-0.080-26.056-11.778-26.056-26.197 0-7.189 2.895-13.701 7.584-18.434l70.697-70.697c4.733-4.734 11.273-7.662 18.496-7.662s13.763 2.928 18.496 7.662l70.741 70.699c4.686 4.731 7.581 11.244 7.581 18.432 0 14.434-11.673 26.141-26.093 26.197h-0.005z" />
<glyph unicode="&#xe90c;" glyph-name="system" d="M741.376 716.373h86.016c9.934-0.024 17.981-8.071 18.005-18.003v-315.351c0-21.714 17.603-39.317 39.317-39.317s39.317 17.603 39.317 39.317v0 315.349c-0.049 53.362-43.282 96.61-96.633 96.683h-86.023c-21.726 0-39.339-17.613-39.339-39.339s17.613-39.339 39.339-39.339v0zM390.4 665.813v0c10.858 0.014 20.672 4.468 27.728 11.643l0.005 0.005c23.527 24.025 56.297 38.919 92.546 38.919 0.464 0 0.928-0.002 1.391-0.007l-0.071 0.001c59.124-0.243 109.156-38.894 126.455-92.282l0.265-0.944h-12.075c-21.726 0-39.339-17.613-39.339-39.339s17.613-39.339 39.339-39.339h57.387c21.731 0.024 39.339 17.647 39.339 39.381 0 0 0 0 0 0v0c-0.411 116.537-94.82 210.886-211.341 211.2h-0.926c-58.045-0.232-110.508-23.938-148.426-62.111l-0.011-0.012c-7.060-7.115-11.422-16.915-11.422-27.734 0-21.67 17.503-39.253 39.143-39.381h0.012zM139.307 343.637c21.716 0.024 39.314 17.622 39.339 39.336v315.394c0.024 9.934 8.071 17.981 18.003 18.005h85.975c21.726 0 39.339 17.613 39.339 39.339s-17.613 39.339-39.339 39.339h-85.973c-53.367-0.073-96.61-43.316-96.683-96.676v-315.399c0.024-21.716 17.622-39.314 39.336-39.339h0.002zM913.365 294.357h-286.72c-21.726 0-39.339-17.613-39.339-39.339s17.613-39.339 39.339-39.339h246.144c-5.088-20.745-23.479-35.912-45.429-36.011h-630.752c-21.943 0.119-40.312 15.279-45.33 35.689l-0.067 0.322h246.101c21.726 0 39.339 17.613 39.339 39.339s-17.613 39.339-39.339 39.339h-286.677c-21.716-0.024-39.314-17.622-39.339-39.336v-28.674c0.048-69.197 56.118-125.282 125.305-125.355h630.748c69.202 0.073 125.282 56.153 125.355 125.348v28.679c-0.024 21.716-17.622 39.314-39.336 39.339h-0.002zM300.629 583.637c0.339-116.592 94.776-211.014 211.341-211.328h0.883c58.128 0.172 110.688 23.871 148.684 62.071l0.009 0.009c7.034 7.111 11.379 16.893 11.379 27.691 0 21.73-17.6 39.35-39.323 39.381h-0.003c-10.875-0.034-20.701-4.5-27.771-11.685l-0.005-0.005c-23.751-23.904-56.625-38.719-92.958-38.784h-0.865c-59.167 0.257-109.226 38.963-126.499 92.41l-0.264 0.945h12.117c21.162 0.719 38.043 18.047 38.043 39.317s-16.882 38.598-37.978 39.316l-0.066 0.002h-57.387c-21.726 0-39.339-17.613-39.339-39.339v0z" />
<glyph unicode="&#xe90d;" glyph-name="earth" d="M872.661 732.971v31.744c0.024 0.73 0.038 1.588 0.038 2.45 0 38.945-27.829 71.391-64.686 78.536l-0.504 0.081c-3.192 0.477-6.876 0.749-10.624 0.749-41.781 0-75.656-33.853-75.691-75.626v-37.891c-20.877-0.097-37.773-17.007-37.845-37.881v-131.548c0.048-10.97 8.916-19.853 19.876-19.925h187.399c10.985 0.048 19.877 8.94 19.925 19.921v131.504c-0.097 20.877-17.007 37.773-37.881 37.845h-0.007zM834.816 732.928h-75.861v37.888c0 20.913 16.953 37.867 37.867 37.867s37.867-16.953 37.867-37.867v0zM854.016 467.968h-41.088c-9.603-0.167-17.325-7.991-17.325-17.619 0-0.091 0.001-0.182 0.002-0.272v0.014-1.28c0.477-6.305 0.749-13.657 0.749-21.071 0-76.87-29.224-146.914-77.168-199.628l0.216 0.241c-1.024-1.195-2.603-0.469-3.157 1.024-10.798 29.022-38.265 49.323-70.473 49.323-0.109 0-0.218 0-0.327-0.001h-37.956v111.36c-0.048 22.092-17.932 39.991-40.014 40.064h-204.807c-11.122 0-20.139 9.016-20.139 20.139v0 35.499c0.024 11.098 9.002 20.090 20.091 20.139h53.338c22.092 0.048 39.991 17.932 40.064 40.014v55.687c0 0 0 0 0 0 0 9.906 8.018 17.938 17.918 17.963h55.469c0 0 0.001 0 0.001 0 43.002 0 77.885 34.763 78.079 77.72v66.45c0.003 0.157 0.004 0.343 0.004 0.529 0 16.453-11.193 30.292-26.38 34.317l-0.248 0.056c-26.761 6.392-57.486 10.057-89.067 10.057-35.332 0-69.593-4.587-102.219-13.199l2.785 0.625c-111.666-27.434-201.024-104.823-244.368-206.529l-0.88-2.324c-21.133-45.781-33.458-99.347-33.458-155.792 0-209.556 169.879-379.435 379.435-379.435s379.435 169.879 379.435 379.435c0 6.879-0.183 13.716-0.545 20.505l0.040-0.948c-0.665 9.391-8.424 16.764-17.915 16.811h-0.005zM456.363 153.899c0.001-0.064 0.001-0.139 0.001-0.214 0-11.024-8.877-19.975-19.872-20.095h-0.011c-0.124-0.003-0.271-0.005-0.417-0.005-1.195 0-2.364 0.11-3.497 0.321l0.117-0.018c-138.742 29.33-241.365 150.76-241.365 296.159 0 0.056 0 0.113 0 0.169v-0.008c0.129 24.106 3.014 47.473 8.356 69.887l-0.42-2.089 181.291-181.376v-37.845c0.21-36.285 25.806-66.532 59.916-73.893l0.5-0.091c8.854-2.022 15.361-9.83 15.361-19.157 0-0.060 0-0.12-0.001-0.18v0.009z" />
<glyph unicode="&#xe90e;" glyph-name="chart" d="M810.667 832h-597.333c-47.070-0.145-85.188-38.264-85.333-85.319v-597.347c0.145-47.070 38.264-85.188 85.319-85.333h597.347c47.070 0.145 85.188 38.264 85.333 85.319v597.347c-0.145 47.070-38.264 85.188-85.319 85.333h-0.014zM810.667 149.333h-597.333v597.333h597.333zM298.667 533.333h85.333v-298.667h-85.333zM469.333 661.333h85.333v-426.667h-85.333zM640 405.333h85.333v-170.667h-85.333z" />
<glyph unicode="&#xe90f;" glyph-name="paper01" d="M666.411 450.091c-106.586-0.024-192.981-86.435-192.981-193.024 0-106.604 86.42-193.024 193.024-193.024s193.024 86.42 193.024 193.024v0c0 106.604-86.42 193.024-193.024 193.024-0.015 0-0.030 0-0.045 0h0.002zM730.112 166.357l-82.987 82.987v123.52h38.656v-107.733l71.381-71.381zM705.024 797.44h-122.795c-16.14 45.408-58.741 77.337-108.8 77.337s-92.66-31.929-108.55-76.532l-0.25-0.805h-122.837c-42.626-0.121-77.148-34.643-77.269-77.258v-578.913c0.121-42.626 34.643-77.148 77.258-77.269h235.831c-22.316 21.694-40.71 47.28-54.112 75.685l-0.672 1.585h-180.992v578.987h77.269v-115.797h308.779v115.797h77.269v-196.267c28.828-4.228 54.846-12.337 78.907-23.875l-1.638 0.707v219.435c-0.097 42.627-34.639 77.154-77.262 77.227h-0.007zM473.6 720.256c-21.207 0-38.399 17.192-38.399 38.4s17.192 38.4 38.4 38.4c21.133 0 38.278-17.071 38.399-38.175v-0.012c-0.024-21.241-17.176-38.468-38.386-38.613h-0.014z" />
<glyph unicode="&#xe910;" glyph-name="paper02" d="M682.667 832h-469.333c-47.080-0.121-85.212-38.254-85.333-85.322v-597.345c0-47.128 38.205-85.333 85.333-85.333v0h597.333c47.080 0.121 85.212 38.254 85.333 85.322v469.345zM810.667 149.333h-597.333v597.333h426.667v-170.667h170.667zM298.667 234.667h426.667v85.333h-426.667zM512 661.333h-213.333v-85.333h213.333zM298.667 405.333h426.667v85.333h-426.667z" />
<glyph unicode="&#xe911;" glyph-name="paper03" d="M800 774.443l-57.6 57.557-57.6-57.557-57.6 57.557-57.6-57.557-57.6 57.557-57.6-57.557-57.6 57.557-57.6-57.557-57.6 57.557v-537.6h-115.2v-115.2c0 0 0 0 0 0 0-63.518 51.407-115.030 114.885-115.2h461.115c0 0 0 0 0 0 63.518 0 115.030 51.407 115.2 114.885v653.115zM627.2 140.8h-345.6c-21.208 0-38.4 17.192-38.4 38.4v0 38.4h384zM780.8 179.2c0-21.208-17.192-38.4-38.4-38.4s-38.4 17.192-38.4 38.4v0 115.2h-345.6v422.4h422.4zM396.757 640.043h230.4v-76.8h-230.4v76.8zM665.6 640.043h76.8v-76.8h-76.8v76.8zM396.757 524.843h230.4v-76.8h-230.4v76.8zM665.6 524.843h76.8v-76.8h-76.8v76.8z" />
<glyph unicode="&#xe912;" glyph-name="list" d="M887.467 779.477c0.024 0.687 0.037 1.495 0.037 2.306 0 34.005-23.679 62.479-55.447 69.834l-0.483 0.094h-639.232c-25.64-6.030-45.652-25.29-52.657-50.015l-0.122-0.502c-1.923-6.487-3.070-13.951-3.157-21.669v-110.555q0-276.224 0-552.491c-0.024-0.687-0.037-1.495-0.037-2.306 0-34.005 23.679-62.479 55.447-69.834l0.483-0.094h639.232c25.596 6.050 45.567 25.285 52.571 49.972l0.122 0.503c1.994 6.501 3.175 13.98 3.242 21.724v147.364q0 257.792 0 515.669zM221.867 127.232v641.493h580.267v-641.493h-580.267zM413.269 561.877c3.631-3.36 8.507-5.422 13.864-5.422 0.481 0 0.959 0.017 1.432 0.049l-0.064-0.004h0.555c34.731 0.213 69.547 0 104.149 0h74.027c36.139 0 72.149 0 108.331 0 0.429-0.033 0.929-0.051 1.434-0.051 5.268 0 10.062 2.031 13.64 5.354l-0.013-0.012c3.068 3.476 4.941 8.070 4.941 13.101 0 0.615-0.028 1.223-0.083 1.824l0.006-0.077c-0.427 15.104-0.427 30.379 0 45.44 0.051 0.536 0.080 1.16 0.080 1.79 0 5.114-1.907 9.784-5.048 13.336l0.019-0.021c-3.48 3.223-8.154 5.2-13.291 5.2-0.623 0-1.24-0.029-1.849-0.086l0.078 0.006c-17.451-0.256-34.987 0-52.523 0h-63.019c-57.131 0-113.92 0-170.667 0-0.647 0.075-1.397 0.118-2.157 0.118-5.33 0-10.167-2.111-13.721-5.542l0.006 0.006c-3.121-3.57-5.025-8.273-5.025-13.422 0-0.773 0.043-1.536 0.127-2.287l-0.008 0.092c0.555-14.592 0.512-29.227 0-43.733-0.077-0.669-0.121-1.443-0.121-2.229 0-5.165 1.904-9.886 5.049-13.498l-0.021 0.025zM428.8 253.653h0.299c35.456 0.256 70.912 0 106.667 0.213h67.669c37.632 0 74.923 0 112.256 0h0.299c0.393-0.028 0.851-0.043 1.312-0.043 5.209 0 9.952 1.995 13.507 5.262l-0.014-0.013c3.087 3.554 4.969 8.228 4.969 13.341 0 0.56-0.023 1.115-0.067 1.664l0.005-0.072c-0.427 15.147-0.427 30.336 0 45.397 0.050 0.537 0.079 1.16 0.079 1.791 0 5.107-1.889 9.773-5.006 13.337l0.020-0.024c-3.287 3.275-7.821 5.3-12.829 5.3-0.787 0-1.562-0.050-2.323-0.147l0.090 0.009c-17.493-0.299-34.901-0.213-52.565 0h-73.899q-80.128 0-160.128 0c-0.813 0.128-1.75 0.201-2.704 0.201-10.109 0-18.304-8.195-18.304-18.304 0-1.020 0.083-2.020 0.244-2.995l-0.014 0.106c0.555-14.592 0.512-29.227 0-43.861-0.071-0.641-0.112-1.384-0.112-2.137 0-5.173 1.918-9.898 5.081-13.502l-0.020 0.023c3.703-3.364 8.644-5.424 14.066-5.424 0.5 0 0.997 0.018 1.488 0.052l-0.066-0.004zM428.885 405.845h0.299q53.461 0.384 107.093 0h71.637c35.925 0 71.893 0 107.691 0h0.299c0.393-0.028 0.852-0.044 1.314-0.044 5.189 0 9.907 2.014 13.417 5.302l-0.011-0.010c3.089 3.538 4.973 8.198 4.973 13.298 0 0.576-0.024 1.146-0.071 1.709l0.005-0.074c-0.427 14.635-0.427 29.355 0 43.904 0.045 0.508 0.071 1.1 0.071 1.697 0 5.067-1.851 9.701-4.915 13.263l0.023-0.027c-3.732 3.278-8.656 5.279-14.048 5.279-0.401 0-0.8-0.011-1.196-0.033l0.055 0.002c-24.107 0-48.085 0-72.064 0h-69.675c-48 0-96.384 0-144.725 0-0.455 0.035-0.985 0.054-1.519 0.054-5.495 0-10.504-2.077-14.286-5.49l0.019 0.017c-3.102-3.587-4.992-8.296-4.992-13.448 0-0.809 0.047-1.607 0.137-2.392l-0.009 0.096q0.768-21.077 0-42.197c-0.078-0.668-0.123-1.442-0.123-2.226 0-5.125 1.906-9.805 5.049-13.369l-0.019 0.022c3.727-3.392 8.703-5.469 14.164-5.469 0.511 0 1.017 0.018 1.519 0.054l-0.067-0.004zM305.792 556.629h0.512c16.256 0 32.683 0 48.981 0 4.898 0.020 9.374 1.809 12.827 4.759l-0.027-0.023c2.836 3.081 4.575 7.21 4.575 11.746 0 0.476-0.019 0.948-0.057 1.414l0.004-0.061c0 5.632 0 11.307 0 17.067v14.336c0 6.059 0 12.117 0 18.176 0.032 0.405 0.050 0.877 0.050 1.353 0 4.7-1.767 8.987-4.673 12.233l0.015-0.018c-3.063 2.948-7.233 4.764-11.828 4.764-0.342 0-0.681-0.010-1.018-0.030l0.046 0.002h-0.427c-16.299 0-32.555 0-48.896 0-0.188 0.007-0.409 0.011-0.631 0.011-4.693 0-8.968-1.787-12.183-4.717l0.014 0.013c-2.895-3.148-4.669-7.365-4.669-11.997 0-0.282 0.007-0.563 0.020-0.842l-0.001 0.039c0-17.067 0-33.664 0-50.517-0.023-0.328-0.035-0.712-0.035-1.098 0-4.533 1.768-8.654 4.651-11.71l-0.008 0.008c3.123-2.89 7.317-4.663 11.925-4.663 0.233 0 0.465 0.005 0.695 0.013l-0.033-0.001zM306.048 253.781h0.256c16.299 0 32.64 0 48.896 0h0.213c0.303-0.019 0.657-0.030 1.014-0.030 4.574 0 8.728 1.8 11.793 4.73l-0.006-0.006c2.907 3.151 4.689 7.377 4.689 12.019 0 0.41-0.014 0.816-0.041 1.219l0.003-0.055c0 5.845 0 11.648 0 17.493v13.781c0 6.059 0 12.117 0 18.133 0.027 0.373 0.042 0.809 0.042 1.248 0 4.787-1.796 9.155-4.751 12.467l0.016-0.018c-3.202 2.948-7.494 4.756-12.209 4.756-0.298 0-0.594-0.007-0.889-0.022l0.042 0.002c-16.256-0.256-32.512-0.213-48.896 0v0c-0.303 0.019-0.657 0.030-1.014 0.030-4.574 0-8.728-1.8-11.793-4.73l0.006 0.006c-2.897-3.101-4.675-7.278-4.675-11.871 0-0.327 0.009-0.651 0.027-0.974l-0.002 0.045c0-16.853 0-33.621 0-50.475-0.041-0.428-0.064-0.926-0.064-1.429 0-8.884 7.202-16.085 16.085-16.085 0.503 0 1.001 0.023 1.492 0.068l-0.063-0.005zM355.883 489.941h-50.517c-0.533 0.070-1.151 0.109-1.777 0.109-4.069 0-7.746-1.675-10.38-4.373l-0.003-0.003c-2.838-2.985-4.585-7.032-4.585-11.487 0-0.282 0.007-0.562 0.021-0.84l-0.002 0.039c0-16.853 0-33.749 0-50.603-0.013-0.239-0.020-0.519-0.020-0.8 0-4.422 1.766-8.432 4.631-11.363l-0.003 0.003c3.058-2.66 7.080-4.281 11.482-4.281 0.254 0 0.506 0.005 0.757 0.016l-0.036-0.001h38.912c3.755 0 6.699 0 11.307 0 0.22-0.010 0.478-0.016 0.738-0.016 4.502 0 8.596 1.743 11.645 4.59l-0.010-0.009c2.862 2.978 4.625 7.030 4.625 11.495 0 0.264-0.006 0.526-0.018 0.787l0.001-0.037c0 16.853 0 33.707 0 50.432 0.014 0.257 0.023 0.557 0.023 0.86 0 4.402-1.732 8.4-4.551 11.349l0.006-0.006c-2.709 2.834-6.518 4.595-10.74 4.595-0.515 0-1.024-0.026-1.526-0.077l0.063 0.005z" />
<glyph unicode="&#xe913;" glyph-name="checkbox01" d="M874.667 85.333h-725.333v725.333h725.333zM885.333 874.667h-746.667c-29.455 0-53.333-23.878-53.333-53.333v0-746.667c0-29.455 23.878-53.333 53.333-53.333v0h746.667c29.455 0 53.333 23.878 53.333 53.333v0 746.667c0 29.455-23.878 53.333-53.333 53.333v0z" />
<glyph unicode="&#xe914;" glyph-name="checkbox02" d="M885.333 874.667h-746.667c-29.455 0-53.333-23.878-53.333-53.333v0-746.667c0-29.455 23.878-53.333 53.333-53.333v0h746.667c29.455 0 53.333 23.878 53.333 53.333v0 746.667c0 29.455-23.878 53.333-53.333 53.333v0zM874.667 85.333h-725.333v725.333h725.333zM256 416h512c17.673 0 32 14.327 32 32s-14.327 32-32 32v0h-512c-17.673 0-32-14.327-32-32s14.327-32 32-32v0z" />
<glyph unicode="&#xe915;" glyph-name="checkbox03" d="M885.37 874.706h-746.698c-29.456 0-53.336-23.879-53.336-53.336v0-746.698c0-29.456 23.879-53.336 53.336-53.336v0h746.698c29.456 0 53.336 23.879 53.336 53.336v0 746.698c0 0.013 0 0.028 0 0.043 0 29.433-23.86 53.293-53.293 53.293-0.015 0-0.030 0-0.045 0h0.002zM762.272 526.787l-255.712-256.309c-5.782-5.816-13.789-9.416-22.636-9.416s-16.853 3.6-22.634 9.414l-156.040 156.040c-5.793 5.793-9.376 13.796-9.376 22.636 0 17.68 14.332 32.012 32.012 32.012 8.84 0 16.843-3.583 22.636-9.376l133.382-133.382 232.927 233.354c5.83 6.046 14.001 9.801 23.048 9.801 17.674 0 32.001-14.327 32.001-32.001 0-9.016-3.728-17.161-9.728-22.977l-0.008-0.008z" />
<glyph unicode="&#xe916;" glyph-name="bell" d="M512.021 68.272c42.772 0.288 77.368 34.884 77.656 77.629v0.028h-155.526c0.242-42.866 34.987-77.536 77.858-77.657h0.012zM308.834 741.026c7.623 6.991 12.384 16.996 12.384 28.113 0 10.557-4.294 20.112-11.23 27.013l-0.685 0.685c-6.912 7.181-16.607 11.642-27.343 11.642-9.423 0-18.044-3.436-24.678-9.124l0.051 0.043c-66.97-60.704-113.46-142.913-128.545-235.664l-0.314-2.341c-0.327-1.898-0.515-4.085-0.515-6.315 0-21.509 17.413-38.952 38.912-38.999h0.473c0.161-0.002 0.35-0.004 0.54-0.004 18.519 0 33.925 13.331 37.143 30.92l0.035 0.231c12.117 77.37 49.687 144.348 103.72 193.564l0.263 0.236zM745.759 321.936v174.685c0.4 5.158 0.628 11.17 0.628 17.235 0 109.115-73.799 200.994-174.206 228.447l-1.661 0.387v26.668c0 32.249-26.143 58.392-58.392 58.392s-58.392-26.143-58.392-58.392v0-26.497c-102.057-27.9-175.83-119.796-175.83-228.922 0-6.094 0.23-12.135 0.682-18.113l-0.048 0.796v-174.685c0-0.001 0-0.003 0-0.005 0-13.326-5.397-25.392-14.124-34.131l-63.532-63.532v-38.828h622.959v38.828l-63.704 63.448c-8.751 8.733-14.176 20.797-14.209 34.128v0.006zM666.481 262.968h-308.066c-1.013 0-1.835 0.821-1.835 1.835v0 239.967c-0.023 1.014-0.036 2.208-0.036 3.406 0 90.113 73.051 163.164 163.164 163.164 2.564 0 5.114-0.059 7.648-0.176l-0.359 0.013c88.238-7.51 141.147-82.99 141.147-174.599v-231.732c0-1.013-0.821-1.835-1.835-1.835v0zM766.667 799.396c-6.526 5.621-15.084 9.044-24.441 9.044-10.646 0-20.257-4.431-27.090-11.548l-0.012-0.013-1.152-1.195c-6.771-6.81-10.956-16.197-10.956-26.562 0-10.948 4.669-20.805 12.125-27.689l0.026-0.023c54.348-49.705 91.954-116.914 103.869-192.654l0.242-1.871c3.213-17.625 18.447-30.811 36.76-30.811 0.202 0 0.404 0.002 0.605 0.005h0.951c21.277 0.097 38.487 17.367 38.487 38.657 0 2.215-0.186 4.387-0.544 6.5l0.032-0.228c-15.498 95.192-61.979 177.5-128.571 238.092l-0.331 0.296z" />
<glyph unicode="&#xe917;" glyph-name="user" d="M727.753 264.803c7.895 0 15.082 3.033 20.459 7.998l-0.021-0.019c5.205 4.9 8.446 11.835 8.446 19.527 0 11.266-6.952 20.907-16.8 24.869l-0.18 0.064h-0.341c-3.298 1.383-7.131 2.187-11.151 2.187-7.93 0-15.129-3.126-20.434-8.213l0.010 0.010c-4.992-4.825-8.091-11.581-8.091-19.061 0-3.75 0.779-7.318 2.184-10.551l-0.066 0.171c4.785-9.931 14.638-16.735 26.113-17.066l0.043-0.001zM510.827 468.673c104.464 0 189.149 84.685 189.149 189.149s-84.685 189.149-189.149 189.149c-104.464 0-189.149-84.685-189.149-189.149v0c0-104.464 84.685-189.149 189.149-189.149v0zM893.52 91.398c-2.89 26.866-8.224 51.339-15.873 74.765l0.726-2.57c-8.582-5.523-19.043-8.835-30.273-8.918h-0.022c-10.601 0.14-20.508 2.987-29.099 7.879l0.298-0.156c-2.22 1.161-4.845 1.853-7.63 1.877h-0.008c-3.983-0.042-7.579-1.664-10.198-4.268l0.001 0.001c-2.627-2.458-4.264-5.944-4.267-9.813v0c-0.361-31.242-25.724-56.441-56.996-56.536h-24.757c-15.759 0.002-30.020 6.412-40.319 16.766l-0.002 0.002c-10.199 10.122-16.513 24.148-16.513 39.648 0 0.087 0 0.174 0.001 0.261v-0.013c-0.143 7.707-6.402 13.906-14.119 13.953h-0.005c-0.135 0.005-0.294 0.007-0.454 0.007-2.656 0-5.137-0.749-7.243-2.047l0.060 0.034c-8.499-4.893-18.69-7.779-29.554-7.779-5.064 0-9.982 0.627-14.68 1.808l0.414-0.088c-14.941 3.986-27.24 13.34-34.972 25.82l-0.144 0.25-11.734 20.694c-5.236 8.311-8.343 18.421-8.343 29.256 0 5.119 0.693 10.076 1.992 14.783l-0.092-0.39c4.272 15.395 14.363 27.921 27.695 35.307l0.295 0.15c2.101 1.163 3.797 2.831 4.959 4.845l0.033 0.062c0.96 1.82 1.524 3.978 1.524 6.268 0 5.057-2.749 9.471-6.834 11.831l-0.066 0.035c-17.106 9.765-28.45 27.892-28.45 48.669 0 10.021 2.639 19.426 7.26 27.557l-0.145-0.276 3.669 6.486c-14.294 0.939-28.673 1.835-44.205 1.835 0 0-337.977 31.105-376.805-296.503-0.202-1.488-0.317-3.208-0.317-4.954 0-19.76 14.744-36.076 33.83-38.547l0.195-0.021c1.319-0.19 2.843-0.299 4.392-0.299 0.061 0 0.122 0 0.183 0.001h688.788c21.209 0 38.402 17.193 38.402 38.402v0c0 1.365 0 2.731-0.213 4.267zM643.653 378.13c-10.304 0.031-19.986 2.667-28.43 7.282l0.312-0.156c-2.364 1.509-5.247 2.405-8.338 2.405-1.373 0-2.705-0.177-3.974-0.509l0.109 0.024c-2.448-1.038-4.488-2.626-6.034-4.617l-0.025-0.034c-0.939-0.939-2.347-1.195-3.029-2.304l-11.222-19.755c-1.117-1.903-1.776-4.191-1.776-6.633 0-4.923 2.681-9.219 6.662-11.51l0.064-0.034c17.369-9.653 28.929-27.894 28.929-48.834s-11.559-39.181-28.645-48.689l-0.284-0.145c-3.505-1.909-6.105-5.107-7.186-8.942l-0.025-0.103c-0.255-0.973-0.401-2.091-0.401-3.242 0-2.697 0.802-5.208 2.181-7.305l-0.031 0.050 11.99-21.334c2.123-3.111 5.264-5.392 8.936-6.375l0.11-0.025c1.12-0.28 2.405-0.44 3.728-0.44 2.948 0 5.71 0.797 8.082 2.188l-0.075-0.041c7.26 4.897 16.206 7.818 25.834 7.818 1.044 0 2.080-0.034 3.107-0.102l-0.14 0.007c0.479 0.015 1.042 0.024 1.608 0.024 15.201 0 28.934-6.284 38.744-16.395l0.013-0.014c10.372-10.233 16.8-24.44 16.811-40.149v-0.002c0-0.036-0.001-0.079-0.001-0.122 0-3.771 1.533-7.184 4.011-9.649l0.001-0.001c2.614-2.635 6.237-4.267 10.24-4.267v0h24.236c0.178-0.008 0.387-0.013 0.597-0.013 7.813 0 14.149 6.325 14.166 14.134v0.002c0.061 15.789 6.674 30.022 17.259 40.131l0.022 0.020c10.26 10.104 24.351 16.342 39.899 16.342 0.074 0 0.147 0 0.221 0h0.245c10.375-0.13 20.088-2.849 28.557-7.539l-0.311 0.158c2.23-1.251 4.866-2.053 7.674-2.216l0.049-0.002c0.049-0.001 0.106-0.001 0.163-0.001 5.353 0 10.036 2.865 12.6 7.145l0.037 0.067 0.896 1.536 11.307 18.731c0.978 1.841 1.552 4.025 1.552 6.343 0 5.134-2.816 9.61-6.988 11.969l-0.068 0.036c-17.164 9.826-28.543 28.032-28.543 48.895 0 10.114 2.674 19.603 7.353 27.8l-0.145-0.276c5.194 8.855 12.416 16.008 21.056 20.973l0.279 0.148c4.275 2.352 7.132 6.812 7.168 11.942v0.005c-0.035 2.547-0.728 4.925-1.914 6.982l0.037-0.069-11.99 20.609c-2.699 4.21-7.353 6.959-12.65 6.959-2.637 0-5.115-0.682-7.267-1.878l0.076 0.039c-8.024-4.517-17.589-7.235-27.776-7.381h-0.044c-0.55-0.020-1.196-0.031-1.844-0.031-15.198 0-28.94 6.232-38.811 16.28l-0.008 0.008c-10.456 10.221-16.97 24.437-17.067 40.175v0.018c0.006 0.142 0.009 0.308 0.009 0.475 0 3.702-1.54 7.043-4.015 9.419l-0.004 0.004c-2.818 2.559-6.546 4.16-10.646 4.266h-24.854c-0.090 0.002-0.196 0.003-0.302 0.003-7.885 0-14.296-6.309-14.461-14.154v-0.015c-0.166-15.664-6.666-29.778-17.056-39.927l-0.011-0.011c-10.6-9.897-24.804-16.052-40.443-16.299l-0.049-0.001zM755.189 356.668c25.858-10.535 43.799-35.379 44.034-64.443v-0.456c-0.082-19.549-8.242-37.176-21.311-49.729l-0.023-0.022c-12.662-12.413-30.006-20.090-49.144-20.139h-1.546c-29.089 0.013-54.062 17.624-64.851 42.764l-0.175 0.459c-3.434 7.96-5.431 17.228-5.431 26.962 0 19.531 8.040 37.183 20.992 49.828l0.014 0.013c6.179 5.76 13.433 10.468 21.413 13.778l0.476 0.175c8.496 3.884 18.428 6.147 28.89 6.147 9.579 0 18.714-1.898 27.051-5.338l-0.472 0.172z" />
<glyph unicode="&#xe918;" glyph-name="ods" d="M921.254 638.237l-196.019 216.030c-5.151 5.849-12.635 9.537-20.982 9.6h-457.075c-47.726-2.654-85.422-42.002-85.422-90.155 0-1.382 0.031-2.756 0.092-4.123l-0.007 0.194v-264.331h-73.432c-9.527-0.435-17.087-8.265-17.087-17.861 0-0.291 0.007-0.581 0.021-0.869l-0.002 0.041v-273.931c-0.013-0.259-0.021-0.563-0.021-0.869 0-9.588 7.565-17.408 17.052-17.818l0.037-0.001h73.432v-83.075c-0.050-1.121-0.078-2.435-0.078-3.756 0-48.142 37.697-87.479 85.182-90.104l0.233-0.010h597.358c47.719 2.636 85.415 41.973 85.415 90.114 0 1.321-0.028 2.635-0.085 3.943l0.006-0.186v504.042c0.001 0.1 0.002 0.219 0.002 0.338 0 8.742-3.234 16.728-8.57 22.829l0.035-0.040zM220.041 241.847c-0.474-0.008-1.033-0.013-1.594-0.013-14.206 0-27.71 3.004-39.912 8.411l0.629-0.249c-6.51 3-12.119 6.477-17.239 10.543l0.172-0.132c-4.782 3.736-8.981 7.841-12.69 12.363l-0.111 0.139c-8.082 10.012-14.352 21.865-18.087 34.793l-0.175 0.707c-3.93 13.054-6.193 28.054-6.193 43.584 0 0.473 0.002 0.946 0.006 1.419l-0.001-0.072c-0.006 0.507-0.010 1.106-0.010 1.705 0 15.57 2.359 30.589 6.738 44.72l-0.285-1.069c4.065 13.527 10.454 25.258 18.781 35.327l-0.135-0.168c8.146 9.273 18.095 16.749 29.323 21.92l0.544 0.225c11.285 4.891 24.428 7.736 38.235 7.736 0.569 0 1.136-0.005 1.703-0.014l-0.085 0.001c0.284 0.003 0.621 0.004 0.957 0.004 9.618 0 18.949-1.231 27.843-3.544l-0.767 0.169c9.080-2.347 17.051-5.829 24.296-10.365l-0.359 0.21c14.522-9.202 25.834-22.312 32.601-37.857l0.211-0.545c7.064-16.35 11.173-35.387 11.173-55.385 0-1.14-0.013-2.277-0.040-3.41l0.003 0.168c0.007-0.558 0.011-1.217 0.011-1.877 0-15.411-2.217-30.305-6.35-44.379l0.28 1.112c-3.977-13.557-10.269-25.332-18.495-35.474l0.147 0.187c-7.958-9.725-17.952-17.477-29.36-22.663l-0.508-0.207c-3.722-1.553-8.236-3.017-12.884-4.136l-0.642-0.131c-8.149-2.305-17.516-3.656-27.19-3.712h-0.032zM845.177 143.753c0.021-0.43 0.033-0.934 0.033-1.44 0-16.798-13.225-30.508-29.831-31.284l-0.070-0.003h-538.433c-16.676 0.779-29.901 14.488-29.901 31.287 0 0.507 0.012 1.010 0.036 1.511l-0.003-0.071v50.221h485.738c9.524 0.412 17.089 8.232 17.089 17.82 0 0.306-0.008 0.61-0.023 0.911l0.002-0.042v273.931c0.012 0.247 0.019 0.537 0.019 0.828 0 9.595-7.559 17.425-17.048 17.859l-0.039 0.001h-485.567v231.562c-0.020 0.418-0.031 0.907-0.031 1.399 0 16.806 13.22 30.525 29.827 31.324l0.072 0.003h367.333c16.68-0.803 29.899-14.521 29.899-31.327 0-0.492-0.011-0.982-0.034-1.468l0.003 0.069v-122.757c-0.021-0.432-0.034-0.939-0.034-1.448 0-16.715 13.112-30.367 29.611-31.232l0.077-0.003h111.322c16.68-0.803 29.899-14.521 29.899-31.327 0-0.492-0.011-0.982-0.034-1.468l0.003 0.069zM349.668 276.025v157.319c-0.073 0.785-0.115 1.698-0.115 2.621 0 6.675 2.189 12.838 5.889 17.811l-0.057-0.080c4.244 3.974 9.965 6.415 16.257 6.415 0.766 0 1.523-0.036 2.271-0.107l-0.095 0.007h51.202c0.533 0.008 1.163 0.013 1.794 0.013 11.577 0 22.79-1.562 33.438-4.487l-0.884 0.207c10.21-3.087 18.959-8.403 26.033-15.408l-0.005 0.005c19.047-20.42 30.739-47.916 30.739-78.142 0-3.193-0.13-6.355-0.386-9.482l0.027 0.41c0.004-0.435 0.006-0.948 0.006-1.462 0-11.943-1.12-23.625-3.261-34.945l0.183 1.163c-2.007-10.812-5.278-20.451-9.72-29.406l0.291 0.648c-4.383-8.822-9.83-16.381-16.306-22.92l0.007 0.007c-4.874-4.899-10.501-9.042-16.695-12.242l-0.372-0.175c-5.772-2.942-12.467-5.238-19.51-6.543l-0.459-0.071c-6.949-1.197-14.952-1.881-23.115-1.881-0.349 0-0.698 0.001-1.046 0.004h-51.148c-0.558-0.037-1.21-0.058-1.866-0.058-5.259 0-10.202 1.349-14.503 3.721l0.155-0.078c-3.523 2.311-6.077 5.852-7.061 10.001l-0.022 0.112c-1.072 4.598-1.686 9.879-1.686 15.302 0 0.621 0.008 1.239 0.024 1.856l-0.002-0.091zM653.638 322.491c-4.113 4.468-9.235 7.942-15.009 10.069l-0.266 0.086c-6.395 2.41-14.744 4.97-23.263 7.099l-1.741 0.368c-13.385 3.301-25.079 7.688-36.083 13.243l0.967-0.443c-9.21 4.631-16.779 11.325-22.313 19.508l-0.13 0.205c-5.217 8.3-8.312 18.392-8.312 29.206 0 0.683 0.012 1.363 0.037 2.040l-0.003-0.098c-0.006 0.309-0.009 0.673-0.009 1.038 0 11.293 3.279 21.82 8.936 30.681l-0.137-0.23c6.148 9.428 14.783 16.773 24.98 21.193l0.365 0.141c10.885 4.683 23.556 7.406 36.863 7.406 0.751 0 1.5-0.009 2.247-0.026l-0.111 0.002c0.546 0.012 1.19 0.019 1.836 0.019 10.44 0 20.459-1.804 29.761-5.118l-0.62 0.193c8.403-3.088 15.625-7.537 21.769-13.145l-0.051 0.046c5.286-4.7 9.593-10.371 12.662-16.749l0.138-0.318c2.441-5.098 3.909-11.070 4.010-17.374v-0.035c0.001-0.055 0.001-0.121 0.001-0.186 0-5.261-1.904-10.077-5.061-13.797l0.025 0.031c-2.804-3.796-7.261-6.23-12.288-6.23-0.045 0-0.091 0-0.136 0.001h0.007c-0.284-0.021-0.615-0.034-0.948-0.034-3.61 0-6.887 1.428-9.296 3.75l0.004-0.004c-3.008 3.528-5.58 7.563-7.552 11.927l-0.129 0.319c-3.022 7.405-7.362 13.703-12.78 18.883l-0.020 0.019c-5.746 4.37-13.022 7.002-20.913 7.002-1.065 0-2.118-0.048-3.159-0.142l0.134 0.010c-0.561 0.029-1.217 0.046-1.877 0.046-8.539 0-16.427-2.787-22.805-7.501l0.105 0.074c-5.627-4.001-9.281-10.459-9.387-17.776v-0.016c-0.002-0.116-0.004-0.252-0.004-0.389 0-3.999 1.196-7.718 3.249-10.82l-0.045 0.073c2.323-3.283 5.241-5.984 8.618-7.993l0.129-0.071c3.231-2.009 6.953-3.784 10.874-5.132l0.39-0.117c3.84-1.28 10.112-3.115 18.859-5.547 12.217-3.122 22.174-6.32 31.884-10.019l-2.016 0.674c8.658-3.251 16.146-7.456 22.865-12.613l-0.208 0.153c6.227-4.88 11.189-11.086 14.508-18.213l0.128-0.305c3.308-7.524 5.234-16.295 5.234-25.516 0-0.675-0.010-1.348-0.031-2.018l0.002 0.098c0.006-0.324 0.009-0.707 0.009-1.090 0-12.468-3.378-24.147-9.269-34.172l0.172 0.317c-6.364-10.507-15.415-18.818-26.213-24.115l-0.369-0.164c-11.524-5.564-25.060-8.816-39.355-8.816-0.775 0-1.548 0.010-2.318 0.029l0.114-0.002c-1.042-0.045-2.264-0.071-3.493-0.071-16.238 0-31.426 4.499-44.383 12.32l0.386-0.216c-8.95 5.887-16.222 13.609-21.419 22.674l-0.171 0.324c-4.981 7.984-8.029 17.628-8.276 27.966l-0.001 0.068c-0.003 0.13-0.005 0.283-0.005 0.436 0 5.051 1.896 9.659 5.014 13.152l-0.017-0.019c2.989 3.438 7.37 5.599 12.256 5.599 0.191 0 0.382-0.003 0.572-0.010l-0.028 0.001c0.114 0.003 0.248 0.005 0.383 0.005 3.978 0 7.575-1.635 10.154-4.27l0.002-0.002c3.252-3.625 5.781-7.972 7.313-12.764l0.069-0.25c2.28-6.548 4.975-12.184 8.202-17.459l-0.223 0.391c3.064-4.753 7.16-8.589 11.989-11.263l0.171-0.087c5.345-2.728 11.658-4.327 18.344-4.327 0.782 0 1.558 0.022 2.329 0.065l-0.107-0.005c0.591-0.029 1.284-0.045 1.981-0.045 10.032 0 19.27 3.405 26.619 9.121l-0.098-0.073c6.67 5.135 10.925 13.122 10.925 22.102 0 0.12-0.001 0.24-0.002 0.359v-0.018c0.015 0.327 0.024 0.71 0.024 1.096 0 6.212-2.234 11.901-5.943 16.309l0.032-0.038zM433.767 302.949c4.288 0.471 8.203 1.403 11.914 2.757l-0.351-0.112c3.97 1.458 7.394 3.482 10.374 6.014l-0.048-0.040c12.498 12.955 20.197 30.612 20.197 50.066 0 2.67-0.145 5.305-0.428 7.9l0.028-0.321c0.105 1.581 0.165 3.427 0.165 5.287 0 13.78-3.293 26.792-9.134 38.29l0.222-0.482c-4.59 8.514-12.054 14.981-21.066 18.179l-0.269 0.083c-8.561 2.48-18.395 3.906-28.563 3.906-0.789 0-1.576-0.009-2.361-0.026l0.117 0.002h-26.028v-132.016h29.868c6.571 0 11.691 0 15.403 0.512zM247.52 306.789c8.866 5.625 15.804 13.579 20.048 23.007l0.134 0.332c4.724 11.444 7.467 24.732 7.467 38.66 0 13.395-2.537 26.197-7.156 37.952l0.244-0.705c-4.12 9.893-10.929 17.978-19.514 23.56l-0.198 0.121c-0.35 0.178-0.787 0.365-1.235 0.527l-0.087 0.028c-8.034 4.695-17.689 7.468-27.991 7.468-7.905 0-15.429-1.632-22.253-4.578l0.364 0.14c-6.77-3.052-12.469-7.385-17.011-12.732l-0.057-0.068c-5.006-6.129-8.922-13.371-11.319-21.274l-0.116-0.444c-2.71-8.581-4.272-18.45-4.272-28.683 0-0.342 0.002-0.683 0.005-1.023v0.052c-0.002-0.234-0.003-0.51-0.003-0.787 0-10.371 1.561-20.378 4.46-29.798l-0.19 0.717c2.555-8.559 6.608-15.98 11.9-22.331l-0.081 0.1c4.742-5.552 10.593-10.009 17.226-13.057l0.311-0.128c6.122-2.702 13.26-4.275 20.766-4.275 0.335 0 0.669 0.003 1.002 0.009l-0.050-0.001c0.067 0 0.146 0 0.226 0 10.055 0 19.461 2.776 27.495 7.602l-0.242-0.135h0.299z" />
<glyph unicode="&#xe919;" glyph-name="pdf" d="M945.195 382.208c0-90.624 0-181.291 0-271.957-0.449-37.827-24.127-70.012-57.413-82.989l-0.614-0.211c-16.071-7.74-34.943-12.263-54.872-12.263-0.749 0-1.497 0.006-2.243 0.019l0.112-0.002q-289.664 0-579.285 0c-2.794-0.256-6.042-0.401-9.324-0.401-50.14 0-92.339 33.997-104.805 80.196l-0.175 0.76c-0.932 8.119-1.464 17.528-1.464 27.060 0 6.769 0.268 13.475 0.794 20.109l-0.056-0.876c0 5.419-2.005 6.955-8.533 6.912-29.013 0-48.512 15.787-48.725 39.595-0.213 26.624-0.213 53.248-0.213 79.872q0 69.803 0 139.605c-0.009 0.304-0.014 0.661-0.014 1.019 0 15.304 9.074 28.489 22.135 34.468l0.236 0.097c7.221 3.57 15.723 5.659 24.712 5.659 0.988 0 1.969-0.025 2.944-0.075l-0.137 0.006c6.272 0 7.467 1.92 7.424 6.571q-0.213 114.432 0 228.949 0 51.925 0 103.851c4.788 52.107 48.28 92.599 101.23 92.599 0.561 0 1.122-0.005 1.681-0.014l-0.084 0.001c5.419 0.469 10.923 0.896 16.384 0.896q204.8 0 409.941 0c0.408 0.022 0.885 0.035 1.366 0.035 6.594 0 12.636-2.367 17.321-6.298l-0.042 0.034q126.933-103.509 254.336-206.635c4.563-3.165 7.514-8.377 7.514-14.278 0-0.14-0.002-0.28-0.005-0.42v0.021q-0.299-135.979 0-271.957zM540.459 72.832h286.592c0.98-0.048 2.128-0.076 3.282-0.076 4.131 0 8.178 0.354 12.115 1.032l-0.421-0.060c18.148 2.853 31.893 18.289 32.085 36.972v0.020c-1.109 119.467 0.213 238.635-1.323 357.973-0.683 54.357-0.299 108.715-0.384 163.072 0 8.064 0 8.107-9.685 8.064l-129.579-0.725c-0.557-0.010-1.214-0.016-1.873-0.016-9.654 0-19.022 1.219-27.961 3.513l0.777-0.169c-30.24 5.802-53.101 31.079-55.157 62.046l-0.011 0.204q0 56.405 0 112.811c0 5.12-1.877 6.741-8.192 6.699-27.435-0.341-54.827-0.512-82.261-0.597-101.717-0.384-203.392-0.213-305.109-0.299-0.67 0.020-1.458 0.031-2.249 0.031-4.023 0-7.978-0.29-11.845-0.851l0.441 0.052c-18.569-1.761-33.020-17.13-33.322-35.938v-0.030q0-163.328 0-326.699c0-10.709 0-10.709 13.312-10.709h516.864c4.267 0 8.235 0 12.331-0.469 28.587-2.048 45.568-17.067 45.568-40.576 0-72.789-0.256-145.579 0-218.368 0-26.709-24.32-41.557-51.2-41.472-174.592 0.469-349.227 0.256-523.861 0.256-2.261 0-4.565 0-6.869 0-5.205 0.427-6.741-1.621-6.656-5.589 0.213-10.411 0.725-20.907 0-31.275-1.664-22.315 19.072-39.211 47.616-38.997 95.531 0.683 191.104 0.256 286.635 0.256zM365.184 294.059q0-35.157 0-70.357c0-3.371 0-6.229 5.76-6.571 10.434-0.992 22.56-1.558 34.819-1.558 16.299 0 32.365 1 48.139 2.942l-1.891-0.19c23.38 2.025 44.177 11.717 60.185 26.515l-0.068-0.062c12.608 13.205 20.367 31.135 20.367 50.877 0 1.84-0.067 3.665-0.2 5.472l0.014-0.242c-0.939 38.101-28.203 64-74.283 69.931-12.695 1.39-27.418 2.182-42.325 2.182s-29.63-0.793-44.128-2.338l1.803 0.156c-6.443-0.469-8.533-2.517-8.533-7.68 0.256-23.040 0-46.123 0-69.205zM199.168 293.717c0-23.637 0-47.275 0-70.912 0-4.267 1.664-5.973 7.083-5.845 9.131 0.256 18.304 0.299 27.392 0 5.76 0 7.509 1.579 7.424 6.144-0.256 14.677 0 29.397 0 44.075 0 4.267 1.621 6.144 6.827 5.291 3.134-0.348 6.768-0.546 10.447-0.546 5.227 0 10.36 0.4 15.371 1.172l-0.56-0.071c19.016 0.411 36.269 7.633 49.491 19.315l-0.083-0.072c23.339 23.595 18.773 70.485-35.925 78.464-11.875 1.398-25.631 2.195-39.573 2.195s-27.698-0.797-41.225-2.349l1.652 0.154c-6.016-0.469-8.192-2.219-8.149-7.296 0.299-23.253 0-46.549 0-69.803zM562.645 294.443c0-23.808 0-47.616 0-71.467 0-4.608 1.877-6.272 7.509-6.101 8.917 0.299 17.835 0.341 26.709 0 5.973-0.213 7.979 1.451 7.893 6.357-0.299 16.555 0 33.109-0.213 49.664 0 5.077 1.963 6.827 8.277 6.741 17.792-0.299 35.627 0 53.461 0 5.376 0 7.381 1.493 7.125 5.845-0.158 2.335-0.249 5.061-0.249 7.808s0.090 5.473 0.268 8.175l-0.019-0.367c0.299 4.651-1.877 6.187-7.552 6.144-17.579-0.213-35.157 0-52.736 0-6.699 0-8.832 1.877-8.533 7.168 0.217 3.418 0.34 7.412 0.34 11.435s-0.124 8.017-0.367 11.978l0.027-0.543c-0.341 5.632 2.048 7.509 8.96 7.424 19.413-0.299 38.827 0 58.283 0 4.907 0 7.083 1.237 6.869 5.461-0.169 2.418-0.265 5.241-0.265 8.085s0.096 5.667 0.286 8.464l-0.021-0.379c0.341 4.736-2.005 6.016-7.552 6.016q-50.347-0.256-100.736 0c-6.144 0-7.723-1.707-7.68-6.485 0.256-23.637 0-47.275 0-70.912zM407.211 294.4c0 15.232 0 30.464 0 45.739 0 4.821 2.219 6.443 7.936 6.869 3.186 0.32 6.886 0.502 10.628 0.502 8.233 0 16.261-0.882 23.993-2.557l-0.743 0.135c17.676-2.649 31.91-15.003 37.241-31.375l0.092-0.327c1.555-5.039 2.45-10.831 2.45-16.833 0-7.201-1.289-14.102-3.649-20.483l0.132 0.409c-7.835-19.844-26.773-33.662-48.96-33.835h-0.021c-4.207-0.556-9.073-0.873-14.012-0.873-2.982 0-5.937 0.116-8.861 0.343l0.387-0.024c-4.864 0.512-6.997 2.091-6.443 6.016v46.293zM241.28 323.029c0 5.76 0.341 11.52 0 17.067-0.384 4.864 2.219 6.699 7.723 7.083 2.618 0.276 5.655 0.433 8.729 0.433 4.841 0 9.591-0.39 14.221-1.141l-0.507 0.068c12.8-2.389 20.949-8.789 22.613-17.749 0.324-1.456 0.509-3.128 0.509-4.843 0-10.161-6.505-18.802-15.578-21.987l-0.163-0.050c-7.055-2.667-15.21-4.211-23.726-4.211-3.158 0-6.266 0.212-9.312 0.623l0.355-0.039c-0.153-0.020-0.331-0.031-0.51-0.031-2.356 0-4.267 1.91-4.267 4.267 0 0.298 0.030 0.588 0.089 0.869l-0.005-0.028c0 6.485 0 12.8 0 19.499z" />
<glyph unicode="&#xe91a;" glyph-name="excel" d="M580.736 446.763q0-202.496 0-404.992c0-23.083-0.341-23.168-22.571-17.067-69.205 19.541-139.52 34.645-209.323 51.925-67.883 17.237-135.424 34.688-203.264 51.371-15.787 3.883-18.901 14.421-18.987 27.819 0 38.4 0.64 77.013-0.512 115.499-4.693 162.901-1.835 326.016-2.987 488.789 0 21.333 0.384 23.68 22.272 28.416 58.581 12.8 117.376 24.405 176.085 36.395q93.184 19.072 186.453 37.931c18.56 3.755 37.291 6.869 55.808 11.008 13.056 2.944 17.067-2.304 17.067-14.677q-0.256-206.208 0-412.459v0zM414.379 323.541h9.899c16.085 0 16.427 0.384 8.533 13.824q-22.955 39.552-46.592 78.635c-22.059 36.267-22.187 36.267-0.725 72.704 15.701 26.709 31.445 53.376 46.933 80.213 1.877 3.243 7.253 7.339 1.28 11.349-3.709 1.234-7.978 1.946-12.414 1.946-12.231 0-23.198-5.411-30.637-13.971l-0.042-0.050q-21.333-40.491-42.411-81.067c-1.792-3.371-2.517-8.277-7.765-7.851-4.267 0.384-4.48 4.864-5.973 7.851-10.242 17.756-21.333 39.81-31.309 62.466l-1.843 4.691c-4.759 16.495-19.721 28.356-37.453 28.356-3.553 0-6.995-0.476-10.265-1.368l0.273 0.063c-10.325-1.237-11.989-3.072-6.528-12.331 17.536-29.867 32.469-61.056 51.925-89.344 6.018-7.257 9.669-16.665 9.669-26.926 0-11.259-4.396-21.491-11.565-29.073l0.019 0.020c-20.096-28.544-37.419-59.051-55.723-88.875-2.005-3.2-7.296-7.381 0-10.795 3.976-1.389 8.56-2.191 13.331-2.191 14.295 0 26.907 7.202 34.406 18.176l0.092 0.143q20.992 38.912 42.112 77.781c1.835 3.371 2.645 8.235 7.851 7.765 4.267-0.384 4.864-4.651 6.443-7.637 13.44-25.088 27.52-49.92 39.893-75.52 6.699-13.824 14.421-22.699 28.544-18.901zM910.336 458.453q0-144.725 0-289.493c0-21.333-1.024-22.229-21.888-22.272q-125.952 0-251.989 0c-20.139 0-21.333 0.981-20.949 21.333 0.512 46.464-6.613 41.515 41.301 41.771 28.373 0 28.245 0 28.416 28.032 0 13.995 0.427 27.989 1.323 41.941 0.597 9.643-2.773 13.696-12.8 13.269-14.464-0.597-29.013 0-43.477-0.299-9.856-0.299-14.336 3.243-14.933 13.739-1.92 35.456-2.219 35.072 33.664 35.541 38.869 0.512 37.461-7.979 37.376 37.973 0 12.459-1.024 24.96-1.237 37.419 0 7.68-2.304 11.989-11.307 11.819-15.445-0.256-30.933 1.28-46.379 0.853-8.533-0.256-11.349 2.944-12.032 11.008-2.731 32-1.749 32.939 29.867 33.408 12.8 0 28.757-5.632 37.632 2.944s1.365 23.68 2.176 35.925c0.981 13.952 0.299 27.989 1.28 41.899 0.811 11.563-4.267 14.805-14.976 14.293-13.483-0.725-27.008 0-40.491-0.256-10.624-0.341-15.147 3.627-15.488 14.763-0.939 30.933-1.323 30.933 29.099 30.933 1.536 0 3.029 0 4.523 0 41.6 1.067 37.077-7.723 37.376 37.291 0 14.976-1.067 29.867-1.109 44.928 0 9.557-4.267 13.611-13.568 13.397-13.995-0.299-28.032 0.299-42.027 0-10.325-0.299-14.848 4.267-14.123 14.293 0 0.512 0 0.981 0 1.493 0.597 53.333-7.936 44.501 43.264 44.843 76.8 0.512 153.984 0 230.997 0 19.2 0 20.48-1.237 20.523-20.395q0-146.219 0-292.48zM792.32 710.571c-16.469 0-32.981-0.341-49.493 0-10.965 0.299-15.36-4.267-14.976-15.232 0.853-23.424 1.493-46.933 1.621-70.357 0-8.533 4.523-10.027 11.349-10.027 34.133 0 67.968 0 101.973 0 8.533 0 12.8 3.029 12.8 12.288-0.299 23.467-0.384 46.933 0 70.485 0 10.155-4.779 12.8-13.824 12.8-16.512-0.256-32.981 0-49.493 0zM792.277 474.325v0c17.067 0 34.133 0 50.944 0 7.723 0 12.331 2.432 12.288 11.093 0 24.491 0 48.981 0 73.472 0 7.936-4.267 10.496-11.307 10.496h-101.888c-5.931 0-11.733-1.152-11.861-8.533-1.429-16.226-2.243-35.105-2.243-54.174 0-6.741 0.102-13.458 0.304-20.15l-0.023 0.981c0.939-9.984 6.144-13.611 15.915-13.312 16 0.469 31.957 0 48 0zM790.101 341.931c16.427 0 32.896 0.256 49.365 0 9.6 0 13.44 3.883 13.227 13.397-0.341 16.427 0 32.896 0 49.365 0 24.448-0.256 24.704-24.704 25.984-2.517 0-4.992 0-7.509 0-13-0.899-28.173-1.411-43.467-1.411-13.047 0-26.007 0.373-38.869 1.108l1.781-0.081c-8.192 1.28-11.733-3.371-11.819-11.392-0.299-22.912 3.755-45.696 1.28-68.693-0.853-7.808 5.803-8.192 11.435-8.235 16.469 0 32.896 0 49.365 0zM793.557 209.707v-0.213c15.957 0 31.915 0.341 47.915 0 7.467-0.213 11.307 1.749 11.221 9.771 0 21.931 0 43.904 0 65.835 0 7.381-3.243 11.008-10.795 11.008q-50.091 0-100.267 0c-7.211 0-11.179-3.029-11.392-10.581-0.597-20.437-1.365-40.832-2.005-61.269-0.299-9.856 4.267-14.635 14.507-14.421 17.067 0.341 33.92 0 50.859 0z" />
<glyph unicode="&#xe91b;" glyph-name="delete" d="M804.599 838.139l-121.904-0.213-34.647 34.604c-8.745 8.753-20.791 14.208-34.11 14.336h-203.809c-13.317-0.109-25.354-5.497-34.14-14.171l0.005 0.005-34.604-34.561h-121.904c-26.959 0-48.813-21.854-48.813-48.813s21.854-48.813 48.813-48.813v0h585.112c26.959 0 48.813 21.854 48.813 48.813s-21.854 48.813-48.813 48.813v0zM707.016 691.701h-390.032c-53.845-0.121-97.462-43.738-97.583-97.571v-487.456c0.121-53.836 43.743-97.443 97.573-97.54h389.999c53.858 0.073 97.504 43.689 97.625 97.528v487.456c-0.121 53.845-43.738 97.462-97.571 97.583h-0.012zM707.315 155.486c-0.072-26.914-21.859-48.716-48.761-48.813h-292.715c-26.896 0.097-48.673 21.874-48.77 48.761v390.084c0.193 26.814 21.939 48.485 48.763 48.557h292.713c26.9-0.048 48.697-21.83 48.77-48.72v-0.007zM402.321 539.033c-19.96 0-36.14-16.181-36.14-36.14v0-292.535c0-19.96 16.181-36.14 36.14-36.14s36.14 16.181 36.14 36.14v0 292.535c0 19.96-16.181 36.14-36.14 36.14v0zM621.722 539.033c-19.96 0-36.14-16.181-36.14-36.14v0-292.535c0-19.96 16.181-36.14 36.14-36.14s36.14 16.181 36.14 36.14v0 292.535c0 19.96-16.181 36.14-36.14 36.14v0zM512.021 539.033c-19.96 0-36.14-16.181-36.14-36.14v0-292.535c0-19.96 16.181-36.14 36.14-36.14s36.14 16.181 36.14 36.14v0 292.535c0 19.96-16.181 36.14-36.14 36.14v0z" />
<glyph unicode="&#xe91c;" glyph-name="view" d="M883.791 136.542l-135.302 135.131c45.8 58.245 73.455 132.64 73.455 213.493 0 191.632-155.348 346.98-346.98 346.98s-346.98-155.348-346.98-346.98c0-191.632 155.348-346.98 346.98-346.98 80.681 0 154.931 27.537 213.863 73.725l-0.757-0.571 135.344-135.174c7.726-7.726 18.399-12.504 30.188-12.504 23.578 0 42.692 19.114 42.692 42.692 0 11.789-4.778 22.462-12.504 30.188v0zM660.038 300.005c-47.247-47.242-112.515-76.462-184.608-76.462-144.195 0-261.088 116.893-261.088 261.088s116.893 261.088 261.088 261.088c72.093 0 137.361-29.22 184.608-76.462v0c47.253-47.249 76.48-112.524 76.48-184.626s-29.227-137.378-76.48-184.626v0zM601.625 524.825h-90.073v89.604c-0.024 17.9-14.528 32.404-32.426 32.428h-0.002c-17.922-0.048-32.441-14.552-32.513-32.464v-89.568h-89.604c-0.351 0.014-0.764 0.021-1.178 0.021-17.957 0-32.513-14.557-32.513-32.513s14.557-32.513 32.513-32.513c0.414 0 0.826 0.008 1.237 0.023l-0.059-0.002h89.817v-89.902c0-17.957 14.557-32.513 32.513-32.513s32.513 14.557 32.513 32.513v0 89.902h89.774c17.443 0.652 31.336 14.95 31.336 32.492s-13.893 31.84-31.276 32.49l-0.059 0.002z" />
<glyph unicode="&#xe91d;" glyph-name="edit" d="M796.449 874.706h-568.898c-0.013 0-0.028 0-0.043 0-78.519 0-142.171-63.652-142.171-142.171 0-0.015 0-0.030 0-0.045v0.002-568.941c0.024-78.533 63.681-142.19 142.212-142.214h568.901c78.551 0 142.232 63.666 142.257 142.212v568.943c0 78.543-63.671 142.214-142.214 142.214-0.015 0-0.030 0-0.045 0h0.002zM249.141 734.284h442.77c19.57-0.352 35.3-16.3 35.3-35.921 0-19.842-16.085-35.927-35.927-35.927-0.575 0-1.147 0.014-1.715 0.040l0.080-0.003h-440.509c-19.302 0.686-34.689 16.499-34.689 35.905s15.387 35.219 34.626 35.904l0.063 0.002zM249.141 574.363h339.001c19.57-0.352 35.3-16.3 35.3-35.921 0-19.842-16.085-35.927-35.927-35.927-0.575 0-1.147 0.014-1.715 0.040l0.080-0.003h-336.739c-19.302 0.686-34.689 16.499-34.689 35.905s15.387 35.219 34.626 35.904l0.063 0.002zM475.582 345.83h-226.441c-19.302 0.686-34.689 16.499-34.689 35.905s15.387 35.219 34.626 35.904l0.063 0.002h226.441c0.338 0.021 0.733 0.032 1.131 0.032s0.793-0.012 1.185-0.035l-0.054 0.003c19.57-0.352 35.3-16.3 35.3-35.921 0-19.842-16.085-35.927-35.927-35.927-0.575 0-1.147 0.014-1.715 0.040l0.080-0.003zM793.377 452.075l-150.534-289.121c-1.153-2.020-2.755-3.663-4.677-4.831l-0.059-0.033-77.657-45.357c-0.719-0.375-1.557-0.632-2.445-0.723l-0.029-0.002c-0.158-0.015-0.341-0.024-0.526-0.024-3.040 0-5.529 2.354-5.745 5.339l-0.001 0.019-7.424 89.604c-0.023 0.287-0.036 0.622-0.036 0.96 0 2.059 0.486 4.004 1.35 5.727l-0.034-0.074 150.534 289.121c2.272 4.279 6.7 7.144 11.797 7.144 2.187 0 4.25-0.527 6.070-1.461l-0.075 0.035 73.688-38.402c4.289-2.269 7.162-6.702 7.162-11.807 0-2.234-0.55-4.339-1.522-6.187l0.035 0.073zM843.342 548.719l-22.486-43.223c-2.259-4.246-6.656-7.089-11.716-7.089-2.203 0-4.28 0.538-6.107 1.491l0.073-0.035-73.944 38.402c-4.235 2.251-7.070 6.635-7.070 11.681 0 2.218 0.547 4.307 1.515 6.141l-0.035-0.072 22.486 43.223c2.243 4.224 6.614 7.051 11.645 7.051 2.232 0 4.335-0.557 6.176-1.539l-0.071 0.034 73.944-38.402c4.24-2.227 7.082-6.599 7.082-11.635 0-2.22-0.552-4.311-1.527-6.143l0.034 0.071z" />
<glyph unicode="&#xe91e;" glyph-name="colFilter" d="M885.37 789.369h-746.698c-29.456 0-53.336-23.879-53.336-53.336v0-64.003c0-29.456 23.879-53.336 53.336-53.336v0h746.698c29.456 0 53.336 23.879 53.336 53.336v0 64.003c0 29.456-23.879 53.336-53.336 53.336v0zM426.684 533.358h-288.012c-29.456 0-53.336-23.879-53.336-53.336v0-64.003c0-29.456 23.879-53.336 53.336-53.336v0h288.012c29.456 0 53.336 23.879 53.336 53.336v0 64.003c0 29.456-23.879 53.336-53.336 53.336v0zM885.37 533.358h-288.012c-29.456 0-53.336-23.879-53.336-53.336v0-64.003c0-29.456 23.879-53.336 53.336-53.336v0h288.012c29.456 0 53.336 23.879 53.336 53.336v0 64.003c0 29.456-23.879 53.336-53.336 53.336v0zM426.684 277.348h-288.012c-29.456 0-53.336-23.879-53.336-53.336v0-64.003c0-29.456 23.879-53.336 53.336-53.336v0h288.012c29.456 0 53.336 23.879 53.336 53.336v0 64.003c0 29.456-23.879 53.336-53.336 53.336v0zM885.37 277.348h-288.012c-29.456 0-53.336-23.879-53.336-53.336v0-64.003c0-29.456 23.879-53.336 53.336-53.336v0h288.012c29.456 0 53.336 23.879 53.336 53.336v0 64.003c0 29.456-23.879 53.336-53.336 53.336v0z" />
<glyph unicode="&#xe91f;" glyph-name="add" d="M699.733 490.667h-145.067v145.067c0 23.564-19.103 42.667-42.667 42.667s-42.667-19.103-42.667-42.667v0-145.067h-145.067c-23.564 0-42.667-19.103-42.667-42.667s19.103-42.667 42.667-42.667v0h145.067v-145.067c0-23.564 19.103-42.667 42.667-42.667s42.667 19.103 42.667 42.667v0 145.067h145.067c23.564 0 42.667 19.103 42.667 42.667s-19.103 42.667-42.667 42.667v0zM512 836.651c-214.622 0-388.608-173.986-388.608-388.608s173.986-388.608 388.608-388.608c214.607 0 388.584 173.961 388.608 388.563v0.002c-0.243 214.533-174.078 388.384-388.582 388.651h-0.026zM512 144.725c-0.013 0-0.028 0-0.043 0-167.518 0-303.317 135.8-303.317 303.317s135.8 303.317 303.317 303.317c167.518 0 303.317-135.8 303.317-303.317 0-0.015 0-0.030 0-0.045v0.002c-0.17-167.425-135.849-303.105-303.258-303.275h-0.017z" />
<glyph unicode="&#xe920;" glyph-name="minus" d="M699.776 490.667h-375.467c-23.564 0-42.667-19.103-42.667-42.667s19.103-42.667 42.667-42.667v0h375.467c23.564 0 42.667 19.103 42.667 42.667s-19.103 42.667-42.667 42.667v0zM512 836.651c-214.622 0-388.608-173.986-388.608-388.608s173.986-388.608 388.608-388.608c214.607 0 388.584 173.961 388.608 388.563v0.002c-0.243 214.533-174.078 388.384-388.582 388.651h-0.026zM512 144.725c-0.013 0-0.028 0-0.043 0-167.518 0-303.317 135.8-303.317 303.317s135.8 303.317 303.317 303.317c167.518 0 303.317-135.8 303.317-303.317 0-0.015 0-0.030 0-0.045v0.002c-0.17-167.425-135.849-303.105-303.258-303.275h-0.017z" />
<glyph unicode="&#xe921;" glyph-name="warn" d="M510.976 284.288c-22.41 0-40.576-18.166-40.576-40.576s18.166-40.576 40.576-40.576c22.41 0 40.576 18.166 40.576 40.576v0c0 22.41-18.166 40.576-40.576 40.576v0zM944 224.555l-326.699 568.192c-21.218 37.536-60.861 62.461-106.325 62.461s-85.107-24.925-106.010-61.855l-0.315-0.606-324.651-568.149c-10.695-17.749-17.022-39.177-17.022-62.083 0-66.943 54.037-121.264 120.871-121.725h654.209c0.368-0.004 0.802-0.006 1.237-0.006 67.229 0 121.728 54.499 121.728 121.728 0 22.907-6.328 44.337-17.33 62.636l0.307-0.55zM873.771 143.531c-7.069-12.44-20.232-20.695-35.322-20.695-0.137 0-0.274 0.001-0.411 0.002h-654.144c-0.042 0-0.092 0-0.142 0-22.622 0-40.96 18.338-40.96 40.96 0 7.471 2 14.476 5.495 20.506l-0.105-0.197 324.651 568.192c6.892 13.187 20.471 22.033 36.117 22.033s29.226-8.846 36.011-21.81l0.107-0.224 326.699-568.192c4.218-6.298 6.731-14.046 6.731-22.382 0-6.954-1.749-13.5-4.832-19.221l0.106 0.216zM511.104 609.024c-22.41 0-40.576-18.166-40.576-40.576v0-162.347c1.022-21.595 18.778-38.716 40.533-38.716s39.512 17.121 40.53 38.624l0.003 0.091v162.347c0 22.41-18.166 40.576-40.576 40.576v0z" />
<glyph unicode="&#xe922;" glyph-name="fail" d="M670.165 606.165c-7.721 7.718-18.386 12.492-30.165 12.492s-22.445-4.774-30.165-12.492l-97.835-97.835-97.835 97.835c-7.665 7.41-18.12 11.977-29.641 11.977-23.564 0-42.667-19.103-42.667-42.667 0-11.521 4.567-21.976 11.989-29.653l97.823-97.823-97.835-97.835c-8.036-7.769-13.026-18.647-13.026-30.69 0-23.564 19.103-42.667 42.667-42.667 12.043 0 22.92 4.989 30.678 13.014l97.847 97.847 97.835-97.835c7.665-7.41 18.12-11.977 29.641-11.977 23.564 0 42.667 19.103 42.667 42.667 0 11.521-4.567 21.976-11.989 29.653l-97.823 97.823 97.835 97.835c7.718 7.721 12.492 18.386 12.492 30.165s-4.774 22.445-12.492 30.165v0zM512 874.667c-235.641 0-426.667-191.025-426.667-426.667s191.025-426.667 426.667-426.667c235.641 0 426.667 191.025 426.667 426.667v0c-0.267 235.534-191.133 426.4-426.641 426.667h-0.025zM512 106.667c-188.513 0-341.333 152.82-341.333 341.333s152.82 341.333 341.333 341.333c188.513 0 341.333-152.82 341.333-341.333v0c-0.218-188.425-152.908-341.115-341.312-341.333h-0.021z" />
<glyph unicode="&#xe923;" glyph-name="success" d="M358.016 542.379c-7.824 8.493-19 13.794-31.414 13.794-23.564 0-42.667-19.103-42.667-42.667 0-12.393 5.284-23.552 13.721-31.347l0.029-0.026 156.032-156.032c7.719-7.722 18.384-12.499 30.165-12.501h0.001c0.016 0 0.035 0 0.055 0 11.772 0 22.424 4.796 30.108 12.541l0.003 0.003 315.733 316.288c7.386 7.66 11.937 18.098 11.937 29.599 0 23.564-19.103 42.667-42.667 42.667-11.543 0-22.016-4.584-29.697-12.031l0.011 0.011-285.483-285.867zM896 490.667c-23.564 0-42.667-19.103-42.667-42.667v0c-0.219-188.136-152.783-340.565-340.949-340.565-188.301 0-340.949 152.648-340.949 340.949s152.648 340.949 340.949 340.949c40.648 0 79.635-7.113 115.783-20.163l-2.376 0.749c4.484-1.749 9.675-2.762 15.103-2.762 23.564 0 42.667 19.103 42.667 42.667 0 18.788-12.144 34.74-29.010 40.434l-0.301 0.088c-42.358 15.467-91.26 24.412-142.251 24.412-235.641 0-426.667-191.025-426.667-426.667s191.025-426.667 426.667-426.667c235.609 0 426.614 190.973 426.667 426.57v0.005c0 23.564-19.103 42.667-42.667 42.667v0z" />
<glyph unicode="&#xe924;" glyph-name="note" d="M512 874.667c-235.641 0-426.667-191.025-426.667-426.667s191.025-426.667 426.667-426.667c235.641 0 426.667 191.025 426.667 426.667v0c0 235.641-191.025 426.667-426.667 426.667v0zM559.573 198.272c-0.024-13.178-10.712-23.851-23.893-23.851-0.015 0-0.030 0-0.045 0h-47.358c-13.172 0-23.851 10.678-23.851 23.851v337.749c0 0.013 0 0.028 0 0.043 0 13.172 10.678 23.851 23.851 23.851 0 0 0 0 0 0h47.36c0.013 0 0.028 0 0.043 0 13.196 0 23.893-10.697 23.893-23.893 0 0 0 0 0 0v0zM559.573 640.725v0c-0.024-8.465-6.892-15.317-15.36-15.317-0.015 0-0.030 0-0.045 0h-64.425c-0.013 0-0.028 0-0.043 0-8.46 0-15.317 6.858-15.317 15.317 0 0.030 0 0.060 0 0.090v-0.005 65.323c0 8.483 6.877 15.36 15.36 15.36v0h64.427c8.507 0 15.403-6.896 15.403-15.403v0z" />
<glyph unicode="&#xe925;" glyph-name="printer" d="M272.384 750.293h476.075c28.56 0 51.712 23.152 51.712 51.712s-23.152 51.712-51.712 51.712h-476.075c-28.56 0-51.712-23.152-51.712-51.712s23.152-51.712 51.712-51.712v0zM627.883 421.461h-234.88c-19.182-1.43-34.203-17.345-34.203-36.768 0-0.799 0.025-1.593 0.076-2.38l-0.005 0.107v-298.923c-0.043-0.667-0.067-1.445-0.067-2.23 0-19.422 15.020-35.336 34.078-36.76l0.123-0.007h234.88c19.178 1.408 34.203 17.314 34.203 36.728 0 0.798-0.025 1.591-0.075 2.376l0.005-0.107v298.923c0.043 0.667 0.068 1.447 0.068 2.233 0 19.431-15.016 35.354-34.077 36.8l-0.124 0.008zM826.581 698.539h-632.363c-0.013 0-0.028 0-0.043 0-38.315 0-69.376-31.061-69.376-69.376v0-323.456c0-38.347 31.075-69.437 69.416-69.461h121.176v167.893c0.049 33.512 27.202 60.666 60.71 60.715h268.549c33.531-0.024 60.709-27.187 60.757-60.71v-167.898h121.173c38.339 0 69.419 31.080 69.419 69.419 0 0.015 0 0.030 0 0.045v-0.002 323.456c-0.024 38.321-31.095 69.376-69.419 69.376v0zM800.128 587.008v0c-0.063 0-0.138-0.001-0.212-0.001-16.495 0-29.867 13.372-29.867 29.867s13.372 29.867 29.867 29.867c16.495 0 29.867-13.372 29.867-29.867 0-0.090 0-0.179-0.001-0.269v0.014c0 0 0 0 0 0 0-16.354-13.257-29.611-29.611-29.611-0.015 0-0.030 0-0.045 0h0.002z" />
<glyph unicode="&#xe926;" glyph-name="download" d="M508.318 389.218c2.718-2.717 6.472-4.397 10.618-4.397s7.9 1.68 10.618 4.397l181.297 181.272c2.704 2.719 4.375 6.467 4.375 10.606 0 8.295-6.713 15.021-15.003 15.043h-111.862c-8.295 0-15.019 6.724-15.019 15.019v0 187.538c0 0 0 0 0 0 0 8.295-6.724 15.019-15.019 15.019-0.017 0-0.034 0-0.051 0h-78.699c-0.007 0-0.016 0-0.024 0-8.281 0-14.994-6.713-14.994-14.994 0-0.009 0-0.017 0-0.026v0.001-187.538c0 0 0 0 0 0 0-8.295-6.724-15.019-15.019-15.019-0.009 0-0.017 0-0.026 0h-111.883c-8.293-0.002-15.015-6.725-15.015-15.019 0-4.152 1.685-7.911 4.409-10.63v0zM715.264 312.783h-392.728c-18.077 0-32.731-14.654-32.731-32.731s14.654-32.731 32.731-32.731v0h392.728c18.077 0 32.731 14.654 32.731 32.731s-14.654 32.731-32.731 32.731v0z" />
<glyph unicode="&#xe927;" glyph-name="folder" d="M847.701 704h-335.701l-83.925 85.333h-251.733c-46.203-0.623-83.417-38.224-83.417-84.515 0-0.288 0.001-0.575 0.004-0.862v0.044l-0.427-512c-0.001-0.141-0.001-0.308-0.001-0.475 0-46.525 37.438-84.305 83.832-84.858h671.369c46.446 0.554 83.884 38.334 83.884 84.858 0 0.167 0 0.334-0.001 0.501v-0.026 426.667c0.001 0.141 0.001 0.308 0.001 0.475 0 46.525-37.438 84.305-83.832 84.858h-0.052zM847.701 192h-671.317v426.667h671.317z" />
<glyph unicode="&#xe928;" glyph-name="link" d="M725.333 661.333h-170.667v-85.333h170.667c70.692 0 128-57.308 128-128s-57.308-128-128-128v0h-170.667v-85.333h170.667c117.821 0 213.333 95.513 213.333 213.333s-95.513 213.333-213.333 213.333v0zM469.333 320h-170.667c-70.692 0-128 57.308-128 128s57.308 128 128 128v0h170.667v85.333h-170.667c-117.821 0-213.333-95.513-213.333-213.333s95.513-213.333 213.333-213.333v0h170.667zM341.333 490.667h341.333v-85.333h-341.333z" />
<glyph unicode="&#xe929;" glyph-name="reset" d="M512 925.013c127.573 0 247.467-49.493 337.493-139.947 90.027-90.027 139.947-209.92 139.947-337.493s-49.493-247.467-139.947-337.493c-90.027-90.027-209.92-139.947-337.493-139.947s-247.467 49.493-337.493 139.947c-90.027 90.453-139.52 210.347-139.52 337.92s49.493 247.467 139.947 337.493c89.6 90.027 209.493 139.52 337.067 139.52zM512 960c-282.88 0-512-229.12-512-512s229.12-512 512-512 512 229.12 512 512-229.12 512-512 512v0zM780.8 206.933c-5.973 5.12-11.52 9.813-17.493 14.933-9.387 8.533-18.773 17.067-28.587 25.173-2.987 2.56-2.987 4.267-0.427 6.827 26.027 29.867 45.227 64 57.173 101.973 19.627 61.867 18.347 123.733-2.987 185.173-12.8 36.267-32 69.12-57.6 97.28-40.533 44.373-89.173 75.947-148.053 90.88-20.907 5.547-42.667 8.107-64.427 7.68-2.987 0-3.84-0.853-3.413-3.84 2.133-22.187 4.267-44.8 6.4-66.987 0-1.28 0.853-2.987 0-3.84-1.28-0.853-2.56 0.853-3.84 1.28-24.747 14.933-49.067 29.44-73.813 44.373-29.44 17.92-59.307 35.413-88.747 53.333-3.84 2.56-3.84 2.56-0.427 5.547 30.72 26.027 61.867 51.627 92.587 77.653 17.493 14.507 34.987 29.44 52.48 44.373 0.853 0.853 1.707 2.133 2.987 1.707s0.853-2.133 0.853-3.413c1.707-26.027 3.413-52.48 4.693-78.507 0-3.413 1.28-4.693 4.693-4.693 58.88-1.707 114.347-15.787 166.4-43.093 30.72-15.787 58.453-35.84 83.2-60.16 55.893-55.040 90.88-120.747 103.68-198.4 8.533-51.627 5.973-102.4-7.68-152.747-10.24-37.973-26.453-73.387-48.64-105.813-4.693-6.827-9.813-13.653-14.507-20.48l-14.507-16.64zM258.987 189.013c-5.973 6.4-11.52 12.373-17.067 18.773-22.187 25.173-40.533 52.907-54.613 83.2-20.48 43.52-32 89.6-33.707 137.387-2.56 71.68 14.080 138.24 51.2 199.68 10.667 17.493 22.187 34.133 35.84 49.067 2.987 3.413 2.987 3.413 6.827 0 14.080-12.373 27.733-24.32 41.813-36.693 4.267-3.84 4.267-3.84 0.427-7.68-24.747-28.16-43.093-60.16-54.613-95.573-21.76-64.853-20.907-129.28 2.133-193.707 12.8-35.413 31.573-66.987 56.747-94.72 37.973-42.24 84.48-71.68 139.093-87.467 20.48-5.973 41.387-9.813 62.72-11.093 4.693 0 4.693 0 4.267 4.267-2.133 25.173-4.693 50.347-6.827 75.52 0 1.28-0.853 2.987 0 3.84 1.28 0.853 2.56-0.853 3.84-1.28 54.187-32.427 108.373-65.28 162.56-97.707 3.84-2.56 3.84-2.56 0-5.547-15.36-13.227-30.72-26.027-46.507-38.827-20.907-17.493-41.813-34.987-62.72-52.48-11.947-10.24-24.32-20.48-36.267-30.293-0.853-0.427-1.28-2.133-2.56-1.28-0.853 0.427-0.427 1.707-0.427 2.56-0.853 23.893-1.707 48.213-2.56 72.107 0 3.413-0.853 4.693-4.693 4.693-57.173 1.707-111.36 15.36-162.133 42.24-17.067 8.96-33.707 19.627-49.067 31.573-0.853 0.427-1.28 0.853-2.133 1.28l-32 28.16z" />
<glyph unicode="&#xe92a;" glyph-name="import" d="M250.677 74.502c-20.657 0.024-37.396 16.763-37.42 37.418v597.36c0 0.013 0 0.028 0 0.043 0 61.882 50.165 112.047 112.047 112.047 0.015 0 0.030 0 0.045 0h278.665c37.829-0.004 71.282-18.74 91.587-47.438l0.235-0.35c27.265-38.786 72.536-103.514 94.937-135.558 12.438-13.165 20.129-30.931 20.267-50.492v-39.966c0-20.667-16.754-37.42-37.42-37.42s-37.42 16.754-37.42 37.42v0 26.156c0 0.049 0 0.106 0 0.164 0 7.937-2.526 15.284-6.817 21.281l0.075-0.111c-22.316 32.044-67.672 96.772-94.767 135.515-6.839 9.746-18.023 16.039-30.678 16.043h-278.668c-0.059 0-0.13 0.001-0.2 0.001-10.272 0-19.556-4.231-26.204-11.044l-0.007-0.007c-6.778-6.754-10.981-16.090-11.008-26.407v-560.327h411.025c20.583 0.048 37.25 16.745 37.25 37.335 0 0.030 0 0.060 0 0.090v-0.005 100.356s-6.998 51.202 37.42 54.786c36.738-1.792 37.42-34.903 37.42-54.786v-100.356c-0.073-61.868-50.219-111.999-112.085-112.047h-0.005zM482.537 283.065l-138.672 138.672c-6.834 6.717-11.069 16.059-11.069 26.39s4.235 19.674 11.064 26.385l138.677 138.677c6.691 6.671 15.923 10.796 26.119 10.796 0.073 0 0.146 0 0.219-0.001h-0.011c0.116 0.001 0.253 0.002 0.39 0.002 20.596 0 37.292-16.696 37.292-37.292 0-10.47-4.314-19.932-11.262-26.705l-74.848-74.891h263.776c0.376 0.014 0.818 0.021 1.262 0.021 20.619 0 37.335-16.715 37.335-37.335s-16.715-37.335-37.335-37.335c-0.444 0-0.886 0.008-1.326 0.023l0.064-0.002h-263.776l74.84-74.84c6.764-6.758 10.947-16.096 10.947-26.412 0-20.619-16.715-37.335-37.335-37.335-0.039 0-0.077 0-0.115 0h0.006c-10.297 0.043-19.588 4.316-26.232 11.17l-0.009 0.010z" />
<glyph unicode="&#xe92b;" glyph-name="QA" d="M757.845 429.355c-3.667 19.608-20.65 34.251-41.053 34.251-2.075 0-4.114-0.151-6.107-0.444l0.226 0.027c-29.056 0-37.163-9.557-46.208-33.835l-89.003-240.939c-2.799-6.248-4.675-13.502-5.235-21.12l-0.013-0.213c0-10.496 7.595-18.091 29.056-18.091s30.464 7.595 35.243 22.357l16.64 49.536h116.651l16.597-49.536c5.291-16.128 14.805-22.357 36.224-22.357 22.827 0 30.464 7.595 30.464 18.091-0.573 7.832-2.449 15.085-5.412 21.747l0.164-0.413zM669.739 275.115l39.509 117.12 39.979-117.12zM344.107 729.387c-49.92 0-83.456-37.76-83.456-102.059s33.536-102.059 83.456-102.059c9.344 0.077 18.298 1.632 26.676 4.443l-0.606-0.176-7.808 7.808c-5.301 5.301-8.58 12.625-8.58 20.715 0 16.179 13.116 29.295 29.295 29.295 8.090 0 15.413-3.279 20.715-8.58v0l11.221-11.179c8.109 16.377 12.853 35.659 12.853 56.050 0 1.295-0.019 2.586-0.057 3.873l0.004-0.189c0.128 64.299-33.579 102.059-83.712 102.059zM710.741 608.128c-15.294-0.104-30.217-1.31-44.801-3.543l1.708 0.215c0.299 5.717 0.853 11.307 0.853 17.067 0 0.034 0 0.074 0 0.114 0 179.088-145.179 324.267-324.267 324.267s-324.267-145.179-324.267-324.267c0-116.741 61.69-219.073 154.25-276.175l1.398-0.803 43.179-73.6c3.942-6.619 11.061-10.985 19.2-10.985s15.258 4.366 19.144 10.883l0.056 0.102 19.584 33.067c19.962-4.537 42.885-7.138 66.416-7.138 19.352 0 38.294 1.759 56.674 5.125l-1.916-0.291c0-2.475-0.384-4.907-0.384-7.424 0-0.061 0-0.134 0-0.207 0-172.914 140.174-313.088 313.088-313.088 14.186 0 28.151 0.943 41.837 2.771l-1.602-0.175 4.565-7.765c9.542-16.042 26.789-26.624 46.507-26.624s36.964 10.582 46.37 26.377l0.137 0.248 32.768 55.851c86.694 56.621 143.186 153.191 143.186 262.955 0 172.89-140.155 313.045-313.045 313.045-0.164 0-0.328 0-0.492 0h0.026zM427.989 471.595l-12.8 12.8c-20.984-8.544-45.302-13.756-70.763-14.332l-0.234-0.004c-1.935-0.094-4.202-0.147-6.482-0.147-79.011 0-143.061 64.051-143.061 143.061 0 5.056 0.262 10.050 0.774 14.97l-0.052-0.615c-0.446 4.239-0.7 9.158-0.7 14.137 0 79.011 64.051 143.061 143.061 143.061 2.242 0 4.472-0.052 6.689-0.154l-0.314 0.012c1.962 0.096 4.261 0.151 6.573 0.151 78.869 0 142.805-63.936 142.805-142.805 0-5.072-0.264-10.083-0.78-15.019l0.052 0.617c0.007-0.572 0.011-1.249 0.011-1.926 0-38.111-13.17-73.146-35.208-100.802l0.252 0.328 11.563-11.605c5.301-5.301 8.58-12.625 8.58-20.715 0-16.179-13.116-29.295-29.295-29.295-8.090 0-15.413 3.279-20.715 8.58v0zM837.248 86.741l-7.424-4.565-28.245-47.573-15.915 27.093-24.491-5.248c-15.249-3.395-32.763-5.339-50.731-5.339-134.575 0-243.669 109.094-243.669 243.669 0 0.017 0 0.034 0 0.051v-0.002c0.445 10.268 1.453 19.878 3.007 29.304l-0.191-1.4c89.847 38.667 157.591 114.065 185.1 206.767l0.586 2.3c16.989 4.238 36.493 6.669 56.564 6.669 134.316 0 243.2-108.884 243.2-243.2 0-88.006-46.746-165.095-116.762-207.79l-1.071-0.607z" />
<glyph unicode="&#xe92c;" glyph-name="lock" d="M512 405.333c-0.221 0.003-0.482 0.004-0.743 0.004-35.111 0-63.573-28.463-63.573-63.573 0-19.015 8.348-36.080 21.58-47.73l0.070-0.061v-59.307c0-23.564 19.103-42.667 42.667-42.667s42.667 19.103 42.667 42.667v0 59.307c13.301 11.711 21.65 28.776 21.65 47.791 0 35.111-28.463 63.573-63.573 63.573-0.261 0-0.522-0.002-0.783-0.005h0.040zM725.333 576v85.333c0 117.821-95.513 213.333-213.333 213.333s-213.333-95.513-213.333-213.333v0-85.333c-70.692 0-128-57.308-128-128v0-298.667c0-70.692 57.308-128 128-128v0h426.667c70.692 0 128 57.308 128 128v0 298.667c0 70.692-57.308 128-128 128v0zM384 661.333c0 70.692 57.308 128 128 128s128-57.308 128-128v0-85.333h-256zM768 149.333c0-23.564-19.103-42.667-42.667-42.667v0h-426.667c-23.564 0-42.667 19.103-42.667 42.667v0 298.667c0 23.564 19.103 42.667 42.667 42.667v0h426.667c23.564 0 42.667-19.103 42.667-42.667v0z" />
<glyph unicode="&#xe92d;" glyph-name="unlock" d="M512 405.376c-0.221 0.003-0.482 0.004-0.743 0.004-35.111 0-63.573-28.463-63.573-63.573 0-19.015 8.348-36.080 21.58-47.73l0.070-0.061v-59.307c0-23.564 19.103-42.667 42.667-42.667s42.667 19.103 42.667 42.667v0 59.307c13.301 11.711 21.65 28.776 21.65 47.791 0 35.111-28.463 63.573-63.573 63.573-0.261 0-0.522-0.002-0.783-0.005h0.040zM725.333 576.043h-341.333v85.333c0 0.093 0 0.204 0 0.314 0 70.692 57.308 128 128 128 35.318 0 67.296-14.304 90.455-37.436l-0.001 0.001c15.575-15.901 27.153-35.776 33.072-57.962l0.208-0.918c4.908-18.59 21.573-32.072 41.387-32.072 23.604 0 42.739 19.135 42.739 42.739 0 3.79-0.493 7.466-1.42 10.965l0.067-0.298c-10.321 38.402-29.763 71.391-55.906 97.719l0.013-0.013c-38.582 38.465-91.82 62.248-150.613 62.248-117.805 0-213.308-95.487-213.333-213.286v-85.335c-70.692 0-128-57.308-128-128v0-298.667c0-70.692 57.308-128 128-128v0h426.667c70.692 0 128 57.308 128 128v0 298.667c0 70.692-57.308 128-128 128v0zM768 149.376c0-23.564-19.103-42.667-42.667-42.667v0h-426.667c-23.564 0-42.667 19.103-42.667 42.667v0 298.667c0 23.564 19.103 42.667 42.667 42.667v0h426.667c23.564 0 42.667-19.103 42.667-42.667v0z" />
</font>
</defs>
</svg>
